<mxfile host="app.diagrams.net" agent="Mozilla/5.0 (Windows NT 10.0; Win64; x64) AppleWebKit/537.36 (KHTML, like Gecko) Chrome/131.0.0.0 Safari/537.36" version="24.9.1">
  <diagram name="Page-1" id="lnk3vU2Fwd7xrjc1i8oA">
    <mxGraphModel dx="794" dy="454" grid="1" gridSize="10" guides="1" tooltips="1" connect="1" arrows="1" fold="1" page="1" pageScale="1" pageWidth="827" pageHeight="1169" math="0" shadow="0">
      <root>
        <mxCell id="0" />
        <mxCell id="1" parent="0" />
        <mxCell id="focrXoz_WdyaWyZUIMh4-4" style="edgeStyle=orthogonalEdgeStyle;rounded=0;orthogonalLoop=1;jettySize=auto;html=1;" edge="1" parent="1" source="focrXoz_WdyaWyZUIMh4-2" target="focrXoz_WdyaWyZUIMh4-3">
          <mxGeometry relative="1" as="geometry" />
        </mxCell>
        <mxCell id="focrXoz_WdyaWyZUIMh4-2" value="Short Term DB" style="image;aspect=fixed;html=1;points=[];align=center;fontSize=12;image=img/lib/azure2/databases/Azure_Database_PostgreSQL_Server_Group.svg;" vertex="1" parent="1">
          <mxGeometry x="100" y="120" width="60" height="68" as="geometry" />
        </mxCell>
        <mxCell id="focrXoz_WdyaWyZUIMh4-8" style="edgeStyle=orthogonalEdgeStyle;rounded=0;orthogonalLoop=1;jettySize=auto;html=1;" edge="1" parent="1" source="focrXoz_WdyaWyZUIMh4-3" target="focrXoz_WdyaWyZUIMh4-7">
          <mxGeometry relative="1" as="geometry" />
        </mxCell>
        <mxCell id="focrXoz_WdyaWyZUIMh4-11" style="edgeStyle=orthogonalEdgeStyle;rounded=0;orthogonalLoop=1;jettySize=auto;html=1;" edge="1" parent="1" source="focrXoz_WdyaWyZUIMh4-3">
          <mxGeometry relative="1" as="geometry">
            <mxPoint x="470" y="310" as="targetPoint" />
          </mxGeometry>
        </mxCell>
        <mxCell id="focrXoz_WdyaWyZUIMh4-3" value="SFTP" style="whiteSpace=wrap;html=1;aspect=fixed;" vertex="1" parent="1">
          <mxGeometry x="310" y="114" width="80" height="80" as="geometry" />
        </mxCell>
        <mxCell id="focrXoz_WdyaWyZUIMh4-6" value="Generate Dump Files" style="text;html=1;align=center;verticalAlign=middle;whiteSpace=wrap;rounded=0;" vertex="1" parent="1">
          <mxGeometry x="200" y="158" width="80" height="30" as="geometry" />
        </mxCell>
        <mxCell id="focrXoz_WdyaWyZUIMh4-7" value="" style="shape=image;verticalLabelPosition=bottom;labelBackgroundColor=default;verticalAlign=top;aspect=fixed;imageAspect=0;image=data:image/png,iVBORw0KGgoAAAANSUhEUgAAAjYAAACkCAYAAACEh2RUAAAAAXNSR0IArs4c6QAAAARnQU1BAACxjwv8YQUAAAAJcEhZcwAAFiUAABYlAUlSJPAAALiRSURBVHhe7b0HfBzF+f+v3iXbYDA1lNDBJpCQUAOEAIEACSGkkUqoRu62bKtZXbKqrW5JtiVXWZa73OVe5V4l994r/fsrr9//+X8+c3fS6TQn3UknWza7r9f7tVd2Z3dnd+f5zMwzz7j9z//8jxgYGBgYGBgYdET+v//v/xNnFkPYGBgYGBgYGHRY/u///b9myeLYYggbAwMDAwMDgw7L//7f/9ssWRxbDGFjYGBgYGBg0KFxZjGEjYGBgYGBgUGH5v/9v/9nli0tL4awMTAwMDAwMOjQOONnYwgbAwMDAwMDgw7N//k//8csW1peDGFjYGBgYGBg0KFxxoHYEDYGBgYGBgYGHZr/9b/+l1m2tLwYwsbAwMDAwMCgw+PoYggbAwMDAwMDgw6Po4shbAwMDAwMDAw6PI4uhrAxMDAwMDAw6PA4uhjCxsDAwMDAwKDD4+hiCBsDAwMDAwODDo+jiyFsDAwMDAwMDDo8ji6GsDEwMDAwMDDo8Di6GMLGwMDAwMDAoMPj6GIIGwMDAwMDA4MOj6OLIWwMDAwMDAwMOjyOLoawMTAwMDAwMOjwOLoYwsbAwMDAwMCgw+PoYggbAwMDAwMDgw6Po4shbAwMDAwMDAw6PI4uhrAxMDAwMDAw6PA4uhjCxsDAwMDAwKDD4+hiCBsDAwMDAwODDo+jiyFsDAwMDAxcxvcuRncMgx8mji4uEzZ8AL/69lu5+NVXcubyZTlx6aIcuXBeDp0/Z+KcBnu/67Ck4wAHsf3+s7acbZlzpvXeM2ek7vRpqT19ymnqwJ4zp+XYhQty6euv5bvvv9fmlyv59rvv5MtvvlF5f/bLy3ISeX/Ykve4JnLQfG3kgPp8xnydOO9TTalrI43TO6ng8XjcPchby2ee22Gc57GLF9Rzwzz7Bteju8725PyXX8p+nNPWY0dl+4njdvKF12H7veE3XT5cLazPk9/34pk8UJ/f5+XExYtyVuX3V/IN3tvvr8BzSvg+XMY9PoXjH0B+15482eTcifX5/5Dgte8+eUK2HDks+/EMXvjqyytShtiD5TrLl8vffC0X8I6cuXRJTqBsOYLn6BCfJ3AQ93Gf+V5uP3ZMNh854lK2Hj0i248fQ/onFDuPH1fH2XXihOxFWcLj8zwOo9w/iXKX58iy8Ktvv7kqecdjfon84nkcoe3i+alzPIsy7pJ8zfdNs9/1jkUjnIF9Osrnx5wvR3DvWB7wOdPtZ42ji8uEDU9q+7EjMm3rJklbXi09586UtysmygtlxfLCmEJ5YXRBK7Hal+m0BLZ7vgQU55soMq8VeXqKGn9/jhTlyrNO8tyoHHm2IBuMlL6zpsnC3TuVwdTllys5AUNVc2C/zNiySbJXLpc+c2fJ6+Xj5bmxo+QFXAsxXZs5H3Cez+ePkOcUI+XZfJyzWls+Z5v+y8uU53IzWkGmPJs3ognP5WXJ80wTax73eeTVCziXX5UWyV+mTZH0FUtkce0uOYKHXXed7Unx2lXyXE6G/CI7TZ7B+T+XNxI0vQb74Jqsrv+qkoP8z7aA8yG4tufx3y+R36+PGyNfzJwm+SuWyfztW2UvjAULW12+uJrTELDLdu+SqBlT5fd8VzKHy7M56Vbnbjpfnne7MTJdnh2RJs9muZARSHMk0s7CWve/gzzHdUaqPJ0cKx+VFsvkmnXKEOjy8krw3ff/I8dRvqzaUyuT1q2R4fPmyCeTxstbo1CuIB9fwPk+n54iz6UlybNpifJMaqI8PbwFuI2TMF2mbzmG+p6apI77Ao+fnS6voWwLrZgkmYvmy4xNG2QbxCHFmO662gtWEM6jcrlmT52kLZgrbxcXyDPpyfI8zvNFlKvJixdKHUQaKxO6/a9nvoZG2IaKY1zVLHkXefF8SrziDZRXQ2dPl6N4znT7WePo0mph8x1Okqp9wd46Kd1UI2krl0qfqhnyh8ll8vOSPLkTBsw/PVHcEqPFLT5C3OLCmwH/x2NNbH+3hum0BLeLxb4xQwHXFvjdQWJbybAh4hYVJt7Rg+V3KJQqN29UCl2Xf22BNYG1hw7IhC0bZeTalRKNF7nn9Ar546QyJeruhqHwSInFOeG6cS6KYVZEDRK3iAHiFjkQ4DPOuQn8PaK/mX5OgrQjkLYt4fg9nOnx2EhfHRvgngWnJ8kvIA7/MWWCRECYZa2E0a3bLcdQO9TlgSv58utvpN/MqeLW93NxG9zHfJ6W83WCobj2oX0dgNu1BV2aZoYQbDMYWNbqs/k/3Aev+Ej5UUaKvAiR87cJY2UQRPhIvL9zdmyTPadOyjfftV+he/DMaRm/brW8CTF4A5+JAaE4L+S55bqY/2FgUO/2YyAY0Mu1DCRMt61pY/++X4jb5/+RF3CPxqxegdrsBW1ethcXIQY2Hj4kYzegXF+ySKJnzZCPJo2TtyFmnsoYLrfHRYofn6l+uHf9cK598N70+lTcen9mBt+boxe2aQT2bSs4F8+hA+RHCdHyTGaavAdB0XvKREmYXyVjIMjW7tsrpy60bz6ycsBK2TxUMIdUTpFfpCWb8onnF/qxur9PQAjGzZ8rW44cQrnztTad6w2KPT7Dc7Ztkd5Ty6UHRGkgn/XPP1R44Zl4KDlOYhcvkI0Qfbo0LDi6OC1svsVJnoEipfIq27BefjdlvNyZmSy+MKI+ScPEe3iseKfFi29migSOSJVOOrKGSyfU1Orhd912rcU2/SuETwbyAQb6QdQe+s2slOUwzGxK1uWjs5iaN79RTa5zdm6XL2ZVykPZaRIM4egNYeCTGCXeycPEC/nvlRonfmkJEgQ6oYajJ8kBdPs5gi4teySqc/VIjRev5BjxhkD0jhoo3hBgb40rkYmbN6huFDZh6vKlrbCl8ejZcxI6rULcYVyD8Ax3TkW+DY9vFZ1T4kBsC3CbtqBLM1Y61RPXLEHJseKH6/TCc+MdHSZeEK83oiLxm6I8yV6xVHaeOC7n26kLpBZp50O0vgRRdTPOlfnNc+48nOeGc0+KkU6J+A0G6gcJrj0oNkLch/SXv4wfKyv31aluFV1euhK+Bxe//kqOnT8ni3ftkMEQu3fiefaAYPPt01N8wvqKN8S+d2SY+KOiFIxKXKeYcOkEkUM6O0osiImQzsPCrRjaajpZERjNsmOweA3FeUJk+uC8PSG8bsNxe06eILO2bFatAuxWa49n+xQqYQthvD8rLZGHcA99BvWRIORXp2jkFQiIQIURQucevIPZSxerlhtHul+uZdj9dBL5MmvrZvkDyhcviHYP5IF/+CDphPzoDPzD+oknhE4w7l1C9UJtOhYcXZwWNicvXZK4lUvkjfGj5dGcDOkyIk38YMx9YZj8YaT88TkABj4I4iJEJzosZAGLKOBn3TZtheleQbzTcd2oZT1fmCPJC+bKxgP7lT+BLh+dgS8h/SEWoMAJmz1DnhuVK7cijwOQ534QAwoYBX8YB/4WCKEQjHsRUi80bIGgwH3qhPO1j2Wb1qJLUwPOhefJc+a5+6fEQCBHixvohM8/HZkm/6mYJPNqd2nzpq18DbFYe/y4fFwxUTzC+0kwDGtn5hHOpQEInSZo/hueoAy0SWhYCRH1my0UQWaUILJDk/9s0rFKWwkXCgQFzs0WyzaA4iYARjQgIUr84yMlAHSByPh5bqb0mzFVdaOevOj6LpAthw+pWvSP8d774Zid8Ow2CBsCccPfKHgg2rXG3xVQPLkSF6XbGc9fEIy/+6C+8nH5RNkNIdheot6aozA+5Zs3qpaOHniO706MgVAYLD4QM/4RAEYnAMY5MGaoBKMS2wmG2yJqOsVHSWdHiQMWcaOAsGkDSlxBHFnETRAFRCTONTxMAoYOEF8QEDFI7sCxfgVbFYEKzApUOM/CjunyoS3sOnxYMufOlu64jwGD+0ogjqtEjUV84bM7fqdB/6BklExZt0aOnT17VXwKrxSnICQrN9bIa7lZ0gXPkhfEnj/uSQjyoFPEYOmMe8X88MPvbNUKw/356lv7+eHo4pSw2XzyhMSsXCo9ivNgSGPEDYWiJ4xAAEUEDJDCVlw0h0XYEN3/bYFiwzr9K4AXDSKEzTtji2TUimVSx0IJhlOXl47CFrJjeDjm7tgqodMr5GFcly8KCDcUon4wpkq8UEhw7TDc3lF0+zuCLq3mMO9nFkYUyx54vryiw6QbjFzf2dNlK2o4X37btvy0hbXhFXvr5M+TysQDxwqCUW1Li40SFTTOLdIgMlqHLk1rdPs0xiSIKJ7wHOGzNwUODFZ3PMtRVTNl+Z5aOfela1tuNuzfJ0NnTpObkVceNJAQWE3O3SJsLGLhB0RnGMUgGGv3Pj2lb0W56nZuj9YFCxRNS/fukeGLF8g7RfkSMqS/qVtnyAAJYqsMW1nqRYmp1aVe0LQGiJpOEBkmMdIgSFyFqSWHoscknHisoKgh4hkGoQF6JMXKUBjPRTu2q+4RV+Qtu1pYgV26fav0Hl8qN0LQeOBYqkWJwsYC8pMiKxgG/kHkw2Dc35p9e5UDvy7daxnV/QSxTB+x90sKTc8VW2WUoGlM58ghEjy4v7h/9h+VJ/TF0aVJHF0cEjbKIQoGIGzpQhjvBPEYHqtaZrSCwhmshYHu/7ZwFYSNJ/LmhswU+eekcVKxoUY167ZFjTPfWWtegNrzZ1MmyINI2xu12CAlAEytHY3FhDNYBEVL6PZ1BF1a9tDtD/CMBcMAUtw8kZ0mcYvny+FzZ7V51VpOw3CM37Befl1apIRUEAwrW0n0osUBlGjQGOsmNBUazqFL0xbdfs2A8/dBHtDA/ipvhKTD2HGUGLtAdXnnLGyWXldXJ4OmTpFuOJ5nHAwPhFWT8/4BCxu22gTCALqHfirhM6Zq89FVUNSsOXRQ/oLy6vaYoeILQRNCMQMRoxUlrqCJsHG9uDFhnb4JX4gKtqJQ3ITBgC6v3SXnLl/W5o0z0BGYvjWTV6+Uv43Kky7sDoMhbyRqzFDsBEeGiXf/UHltZIaUrlyuRga1p3i90tBunYDtm7Fpo/weYtkbgsaXQlkjakzCZrAEUdiEfiwRMyq1aVpwdHFI2HD4cO6alfL06AJxSx6m/EhUN5OzLTS2WAsD3f9t4WoIm9R4uQnr0MopsnjndtUawJusy9OW4H4c+rwcoiZsRoU8hHQDUeAHqlaaFgSBQ1gLi+bQ7dsSunSaQ5cGMf1HsREUM0R+mZshG1AQ6/KrtRw7d06GL5wnP80fIR4UjTC4V0bYEBth4TS6NK3R7dM8wcnIaxjXLuDP48bIjI0bXFL4s+DmCJUFW7dITxjSrjiOJw2dOq7Nef9AhU1nEBgfKe508B/aX8LnV2nz0lWUbtkkPy/Olxtxr/0jB0kA/UFiI1TrjFaUuAKtsCE6cdJWGh8jBL8F4hqDhg6Ql1GeZlbNkp1HD7e5VZ3701+mcPFCeRtipROFC46hFTZcQ/gEhg+UG3A+vy7MkVm4D2fa2bH5SkKRN3Htavl1TpbcAOHiFdZPgsw+NXoGS8DQgeIW1lfC583RpmnB0aVFYfP9d99LDYzJW2XFckNagvjB0LhE1BBrJ1/LbyOt/m8LV1rY4HgUNt2wHjJ7uqzbt6dNjmGsJTOWRfzCufKz3EzVReJLI9DmlhpiLSpaQre/I+jSsodufytwzW7RYfKjlBiZtLFGTrvQ94PxNz6pLJc7cQ89kMfByOM2CRuiM9ZaGgRF69Gla0G3ffOweyooKUY4kvCZ3CwZuWi+7Dt5EsKkbX4AbLmkiKxYv07+UTpaboCw8aIBVce1Oe92FjYUEBZ0/7eV1qSvtofA4CAML/AjvBcjVq/Q5mVbYYVp/q6d8jaEqxr9x5YM+qy0UdA43FV1lVptlE/OsCHiA9FxG/7/XX62TF63Rg6jDNDlk6OwG2rzgf0yfM5MeSk9RQkXtg7phE09OD4diW/AOQ2urJBVtbuU8G9tRbgjwMrLUeRl6eqV8k5hrgSz+2lgb7stNRYoNAMhbG5PGCbpy5do07bg6NKisDl27qyUrl8r92akqBqtM4KGAqgeOhPbkpkiIUhXwc/8bYTNNm3BOv32hoZxeJzcCmETM3+ObGljywJjR4xZB9VbWixeNDYQlc6IAfreNA+ddltCt5+zWKdlff7W6K/BGj57t0DgRCyokg1HDmnzrDXsOHVSXi4rEV/cOy8I0xAIE0eEDbezT5yEwEC3CIx7m9ClaaZBKDQVL81BYcNWG4/4SHkc7234tApZu7dOzrex1Ya12j0nTkjxiqXy++ICHCtWvGnU1XGtzxfYCJuQhCgJgdF1FaqrxYzu/7bSmvTV9rhWL9UVFCnvjRmlRpLo8rKtbEKF6e2ifBjYoeIVGSbBdATm8XUipL3gMRsJD50waSvW6Tc+jhcE3a245gEV5bKmrrZNXUEcHr9y904ZxKHM7FpF+oEQN1pBYwUFVjB4Pi1Z0ubNkV1Hj1yzQ8C//5/vlSM0heJv83PEe1Af8YWwCaLA04gZCxwV5T2wj3TCtm/njZBpqLjq0rfg6NKisFlct1s+RI22Cww3fUh0AsYeARAXXhAXHulJ4g6j4Y5Cq0WGa367FoAxYMyemyH84lHL3Xb0sDY/HYEOm6v375PwOTOkB262G9JXfjUOigGKCG/6QiHPKbY6BLgGPxoxOuby/Nny5ETrkycM3Y3Y9iM8i9V7arX51hq2Hj8qPSCm3aNRwA9v2WmYLTpeSTHijvPxaJbo5sGz4oECvtWgUPaAIWx6LHxH2l4QAwEUBRw+jfyvRwkJ+1gLm4fw7oZWTJRFqN0zMqgu/xyFtdpNqNWmogB/KSdTiRffRIgXdVz7wsY/LkI8YoaKO/1OYAzazmAQphzFTZ9127SVweIRhfQhGpzBA7A5/kYYxc8nlMly5LsuL9vCzmNHJXXhfLkHtWOvITCs1qObmgPPm3Igxj1R8DN+78z9Y8IlGPfIh346uE8cPeUP/IAP8NLgyXWUhcGN8LT6zOHbPshPP8B0g4ESBhAPTUdHtSRsGv5jzBt2C/29OF8qUXE/feFCq1vYz12+JHO3bJS/jBstITgPjswKsZxnM4Tg2oIgsDoN7isfQOzP3bRBxdq5FqMSs9WrbO0q+VV2phIrLXc/meC2nv17yc0QQIMgMtfv26NN34KjS4vCJn/9GnkkL0uCslLFH0JFJ2CsCQKMYeOZGqccjG/MTpO78zLlwfwseeR6BfnzcG6mPFYwUt6aPE7KatarcOi6/HSEfdh3NJTvG2OLVCuFL8RAcL2gsdBg9Cl6ONzeGwbBEwbNMxHAiDHo3c0QpLcS3LuryW1sPcN1uNMYozD0BHSEbvAZaixkbGGMm84Qa3+cWCqzd27X5ltrWH1gnzyYClEajoKuGWFDQePDrgLQDfl6O66HQ+7tk9QM+B9p3Ibrui0VcO0oVtvfinxrfCzTsfnMdEVeBSPPfGB8lBGBwfGFWAlKonhoKmgs1AsbPEf3IZ2PJ5XJ7G2blSO8Lv8chc3sy3btkH5Tp8ijOG8KrgCKLnXcxsKmM4UN8tmPBhXPy214lu/F9d6H/X7cZphOgoKf9du0FaaL9PFsO8p9ikTphmvugRp87pLFsuf4cW1etoUJa1bJi+wuiYRYgGFtqfuJMXV8KTIgBDiyyHNgb9DLDD7jNw8GgmSASog5b7Y4UTzgmesCboSg6Io0rLnRTNfYSDP2/jet2V3TGelSLPhSAKpz6SOeA0JhFEPFC+fhjRq/X+Qgk6CoFzD2hY0PWxJwXb8ZkSY5C+fJTraWtNLX5uylizIN4ujNUbnihnOjH4+tiNFBR2KKG+9BveWRxBjpWzFZ1qNC64oQIVcKisEDp09L8aoV8jaun0LNjfF7HBA1hMLGo+8Xcieex5zqRbLv1EntcSw4urQobCKXLFK15UAUmDohYw27nPxgxChsbshIke6jcuTt8nHy+YwKGTp3lsQsnCvDFlZdd0QvqJKo+XNk+JKFMmHDejW3CVtddPnZEmwSXbd/r4pXQ0FCg95Y0Fhjap3xRyHqC0Igbm6AEaDRfBAi66XSYvkTDNMHEFt/v0rw2P8A/ywfL8+OLpSbIJBvwvN0I4wsjVcQCnSKtpbEjcoHXB99vSphaHV55yx07p65fSsMS7y4Rw1qdpg3474Ep8TLPSgI/zhhrPxnygRcG/PWlL+NsfxuD1Pe/GPy+DZgyd/G6ZK/gndwjk+V5Ms9eIZuio+WG2Ag2OURCDERktxU0FhoEDbRykj/d/wYFZ7+6Nm2+SGwVjt780b52/ixylmV8YLYnWY6bmNhwxYbBp4MxHY9stPlA5wDI5YOmFYh/SqntI1pVuj+v4r0x/X9fWKZiiK+CWWIK4O3sVzhPEp9yyeId+jHKhhaS6ImBM9MAIxvALbtAmN9E8TDzTDCN0NIKAb3k5ujB8tN2LYb7uUdEGSPjkxXU5I8j/WvsjPkjdwsebsgW94pbOBtM+8U5ljR+H+1xn5v5WfLb5DGS0jvqaw0CNJklB8xchPO6ebBfeUmnEdXnEcnGFIO61atJfUCxr6wYVwedsX9bHiihFdWyMraXSgPWldmn+aw5pXL5HVcrwfOh0H5lJOwE3jhGu7FdeUtq5a9J05cE4H72LLElpoSiJpf544wdT9BMAaZY9M4AkdEuff+XO7F/SivWd/i9CGOLs0KGzr8hcFoMzS/EjbN+NcEAx+IGgbm+8XYUVK8qUZWHDog644cVvFHOLFbHdTY9YhlMsR9nPwSNVsazNY8mNyHsRWmb94g/4Zx6gLD4smCXhn9pjAInxf+D4aY6ZGXJX3nTJcxNetkXt1uWQxxtAr5X3PkkGzEPbjasF9/+cEDUrW3Tqp275TxG2tk4Lw5cj+eKXZRMbgjRZpO1BCLsHkbz9b0rZu0+ecsdGYdu36N3D0chjwaL5lG2CifGQiBW5Ni5R/lE6V862ZZh3zdDMOju86OwAaw7vAhWXZwvyxEfk+HeMtduVz+PLFU7sA1+idEiT+Eg62oIQ1dUVFyf3qyfILnkKHQ6fOly0NHYYE1tWatvD2mUHxgMClsGh+7Qdj4JkRK5+Rh8kpxniRXL5Ble+pUZWEnypEdx462jeNW6P6/WuB8eH28fywvGQVYl4+theVK0eqV8gJEAqesCIoZ2qywoaBxH9xfukEQvAGBkY4KbiXKpSo8C1VbAdfbtkrVzu1StWuHVEEYzKurlcV798jyfXtlBdar9u2RNfi8bv8+WXegFXA/wDRWIr1leJYX4hhVu3dJ1Y7tMhfPNUcUjV+3VobNnilvQiCxq8p96AAlcJoTNhYBdF/CMPkMYpLTILRm9B8F436U/QUL58mLmWkqfk0QRSOPYxYtjsAWMa5/V5grpRAKHFnUnlObuIIDp09B1CyXFyDoOkHQqO4ntoSxxUojYnQoYdPrM7kf175o544Ww6M4utgVNpwLigq/95wZ4h4X4ZCwYVfVj2Fge86qvCJz/FxvcDZaCsD8VcvkrbFFKo6LFw2sRtQEgUAYfIqfX5YUyLAFc1VBQkc2XdodDcbQWHlgv3yImjinoKCoaS5asqUr6i8Txqhghbo0nWU7DEri4vlyW2qceMaioNcImyB26eHYdyYNk5RF8+XyV9emcx8nSp0MMUlxQ/HgyRazRsLChLWPzSOZw6XP1MlSXbtbxfvRpesojEA6YfUKeXVUrrjDqHLkFY/V+PgmYeMZFy43Is8/hqiq2rZZTSqoS9PAcTgH2J+K86VbTLj4gRCOTNIIGrbSsOuJrRk/z0qTzyHmx69drWKt6NLtCNAxfceRI1K6ZpVq8bofZSK7rIJxDfbEDQUQu63uwDX/q2y0zNpQ06poxOw22oKKTvLMafLztGTxoMNsK4QNnY3ZhXUHPn+Ba1gJsdge0ZFdASvg7DIqXLFUiV52P7k70f1kDYWNW+gn8iCufy0q47rjWePoYlfYcNp1hj//97QKcU+KlqBmuqLYBRWclSo3QNi8WlYs2SuXqqntdeka2IfDMNehlj1s0Tz5+agcCYSw8aaxNYsZa7xT49X/nFU8fXm11EEQcQ4UXbodldOoxZdvqpE/4UW+hV1pIBjohA27Q7viuj+rnIIavGuch5fs2S0fV5bLjUjfiy0YNqKGBELYMH7Q7XgHhlcvlK+bCffdkeEwUnYnldaskwdQw2oYat0Ya2HzOEPQz5yqas8Xvmp9C8L33/+PMoyjUOt/MX+keNDBsomwaWixobC5OSVG+lRMkkWolZ+5eFFVtHRpGzgGWz4ehbF179uz2RFQHPbtC0P1aEq8FCxfoqKns+WgIw9DZpcIz49dSdtgs/pOnyrdcI0UL8rZWCNuLMLmdgi5f5WWtFrYcB92Yw2eMlGNiKKwUd18TgobdU4QNt4DQuWX6SmSjYrqLlS82hpjx9Uwr/kuFy5dohyFvQf1NQXfa4WoseDR61PpgftAvaE7pjWOLnaFzTnUkmajZvzOpFLxSB4mQZn2hQ0dhtkFdWNGivx5ygSp3LpJzrggqNcPjfNffqmiDH86Y6r8KDtNfGFwOUGkTth4wDB0Q37Td4k+OZxZVpdmR4bGcnHdLiUu7jALG3sTd3LEz83pyTKwaqYSf7r0nIXP6W9Li9Rxvdk1YkfYBKgWmxjJWFqtTedagU6OC3Zulz+NGyO3I0/pDN3g59IgbBgzySMuQn42Ml0SZs+QzYcOtcmh8TIK561HD0vKvNny85wMlbaausLquNbChqOg6DCcMG+WbMa95rN9LY4U6SiwW4POnXdCuLiH9bUbayaEawibHnjP6NO09cjhay6uCp9Tdml8UT5RukEs0Km407CmQ8stwoZ58p+y0TJ7Y42ca4WwYYTdeVs3S89xY+XBJDy7EYNU2k4LGzOMjNwFwvIlVCqmM2ZXB2sg2IsKdOGyJfICzq+++6mVoobzRXEyTF7v2/kj1LxoumNa4+hiV9icuHhB8lYvl+fGFIpHKgq7zBStqCGcxTsQ/98Cvpg1TdajMGLrgy5dA/twostpWzbJH8rHqxFNDIbI7iadsHGDUboTD1fh6pVy+PRpbXodHYrnOTu3yb8qJsptLQmbxGi5DUIufvEC2XbsiDY9Z8ldu0oe4LMLY+pPA68TNjS6WHfPQl6vWaVN51rhDN7peais/HXcaLkzFWIuIVq1zjQRNhBxFB/P5mZKFmqOe1CYfftd6w0ca7Ur6molrHIK8jFVtQbxuI2FDcG54HcO7abQ5QzIex0o7AyaZ0XtbmXou8ZHiyf9H6zEjIVgwNYaOgn/Y/xYWbRrh8v9fK4Uh06dklFLFsuPYiLEnTFSNMLG5INDH5to+WxCqczb3Dofm0NnTkv5ujXyflG+/Aj56xM1GIKJoqZ1woaCiH46N0YOVi2WSyDSLqCcvNoCk91P9KkpXL5U3sgbKSFDB4pHK7ufCEdDBWNfCqMHzCPCDjrQ3enoYlfYHDx7RvpXzZAHCkaIJxQ8W2R0ooYE4j8Kmzuxjlo4Fyd4Ws2foUvXwD6MqDuxZq28hhqEB40qRQzy3lbUcASRJwzAj3OzpGT92jZHzrxaMDbKmPWr5R0Y2pthaNkNRT8bnbBxT4iUO/GM5a1eIQfwfOnSc5bI6gWq2yOIMVOGw7BaCRoLHA3F4dNvlpVIhYtGY10tTpw7K+Ub1ssv8NxwhJS6btVK0iAu6oVNbLi8XJAto5cvUf4xuvQc5TiOOxuC/WMYkPvTksXTLKiaChvAY6Nwvxt5PmrVCjnUhrAJBibGrVktz2Wkqsk1fTgc20bUEE5+6g9jfAcMatqCeW0KWHe1OYqK3mgY4LuaETYB0YPVmt1H/adAQOzYpgSELr3m2HP8mBRARD2Pis+NSE8JpjYIG8KpLYJxHx5LipVhM6fJjsNtazF1BbQxxcjT3+SOkMDB/VT3U2Abup+UsBk6QDz6hcoz7HpbvFD5AeqObY2ji11hswMFyi8nlymH4IDM4cqPRidqCIUNW3TuwDpiYZUSNv9zDb8YV4ujMAD0Mn9pdKG4w9Aqv6aMlEbihkOjfcytGi9ju4rNG2E42hZj5GrBkTaZqJW/UpIvNyphY8d5OD1J3GKGqNggla0cvWALC+4h82aJW3g/ZeC1Q71haIMTh8n9uAe9Zk6V5S0Ej+roHEfhxCBaD+AZ8opBwWsrKoBF2LjD0L0yKk/G4XlkS48uPUdhnIvxEOC/Hz1Kjcry03SB1YNjMyjfYyPTZCzOld0oujQNHCdpwVzpHD5QAmF42TKjEzZsrWEk3rdguCohfnXpXCschu0qWlYtd+EZplOrTtgwhg+D6T0Noxo9s1LW7KlVo1l16TUHRcfwubPlx3ie6ZvEtO0JG/reEMausf3PFg4ZD8S5/7EwV2bWrJPjZ89eNbHJUV8lK5bJr7MzpCv9gAb3t9tSQ8HCUVEhQPe/BSVsII48+vaU13OypBzlQ0tDvYmji11hs/nkCXmwJE/chsc2K2oIR0QpHxvw5qRSSUNhWFW3Sw013nnimOzFg7YPhRvXOuj4SkcpBkmyhb/zf91+bYXDs/ej4NyP9QGs2RTG4dpnLl0yKeQr+CDRj4B9jJmL58szRbkqWq8SNhCM1sKGwfgYUfgu5Pm/Jo+T+Tu3y+k2Gp6rhWoVnD1duudkqFm8TcKG16kRNtFhMMiJsnwvxMX3+vQchQUEX6I+MyrEfWhfu8ImBIY2JCFaeoxIk9Sli2T78aPa9K4F6KNy8ORJ1ZR8J66LEXIt4s0WDsX2h/h4q7RYymscK3CaYxdqtSNgaJ7KzVIRhSmcdMel2PFHft+cHCNvMiLsxhrVyqRL08AxGHRu4PQKcevzuWpN0A3xpm9NMAzyw3gehmLbdXzHNGldC/DdZisK5zi7E8LFY1BfiI2mwoZdRsH4/8WsNEmumiUb9u+TS63oett8YJ8MmzFVbomNVI7DKv2WWmuiNL9Zwe4oih+fsD7yMO5XrwmlatqHS62Ms9Na2P10kMH3Vi5TMYXoC+MJsaVrqeHoJq4DwvqJ79ABKk4QnaFtt7PA7ZWw6f2Z/LmkUHVVOyIsHV3sCxs8HI/kZohbIl4EKxFjD4ofTqHgA+NzE9avTxwrobOnSQIM9QhkTM7q5TISgqcJ+C8DhV7S/CpJmDtLEufNtmKOJC+okgzU6rOxf7Zu/1bCtHJXr5B81AoLzBStXyMTN22QObu2y5oD+2UXBNWR8+fV7OZnv7ys/IYoQNpDOdNxeB2OGV01Q54oGKnESxBba2xabJSwgejpASMxGDWN1XvrXNKCcTWohbh8b2Kp3JiWIN4wbKZuKI2wAW6xQ+Wx7HTZDKGrS8sZWNhvh2j+cMoE8Yjorwy5Ttgw2jCFzVO5mTK2Zr0cuoaNLLuGdxw+rLoZbsd10UFXJy5U4DxwG+7DPysmyaztW5Tvly5NR+G8aTGo1d6ONBlxmq0ytsdlSxGH1bNr8GEI2d64N8t271QjonRpGrQMY4Kwwvb55PHiDgNiT9hwWgU60v40Y7iMWrkcNfRrs/uP4v1LPOeckDJxzkw10aU9YePNVgWsX0WlJXNelWzFM+rsPE3fwg6sq9stg6dMUvF+PAcPMB3LpsXGMvz7oZR46T48Qe5NRHmD39l6Yy1odHCUFIPXZUOocQbxtk5G6wxHUPEcjefhrfyRai4nzv0U0Ez3E/1uAgb2ka4QjGyZvYF5rdmOmIRNf3H/4mM12z9HWrUUw4Y4urQsbBIcEzaELTd+GckgSW7ITpM7sP/9MAqP5I+QRwHXOh7Oy5IHctLlfhgurhuTIQ/hf91+bYXnxGkQLHQvHCk/GZUtTxXlynPFefJSSYG8Xlok704eJ2EQWowDsg2GtTXKviXYSrRkT630h1jheXnA2OuFTYKahZrDvDMWL1CjTa52/2tr2X3qpLwzplBFmvXCi6ATNuya8kmLlwAIvVfKSmQn9tGl5QwM779k1055f/wY8YgerFoQdMKGjsNB8ZHyDJ6/eTCy16ozJYX4BdT2VqFWNHTWNLkF16YEhpWwsOCXNEwJjJ+hwI+cPUMJ59Y00VvDOaKiZk2XWzgcNhaFnea41r49T+LYMRyEsG+vule6NA1ahvdtOQzvn0tLTI6eMK46YcNpEzi9wHNZaTJjy6ZrVkzyOT+Pa15Zu1uGTKuQbrGR4jmEYsNa1BDTJJhsOfk9KoijUXHeh0rs1986PrSarRnMpzkbauSTscVyI+e8sj6WlbjxGtJPbouLkoiZ09RklxxezqkmGJSvuQjFFEMUE51wri9nZ0rB8qVq9mweW3dOroSOwmNXrZA3crKkG0SId1g/CWSe2REpvgN7S/CAXvIMyu9oVGJyVq+Qp2G3OjNYop0WnqDBEDaffShhFeUqrpnuPGxxdLEvbE4ck4fys8QtKVorYpqDAoeTX7rDCHOCSDcUlM2SEtMwmSQnwbTGkf0dAYWmGwrtFkmMhpiLFDfUHN1Qq2VLgSfy4F4ItbcnjJWBEDiF61fLYoiQw1C0rhpmfeTcWTX8+O/lE+QuCDwPGHSdsOHcSh6Jw+TVsUXKX4LdaI4o3Y7IxsOH5G0IyC7Idx8lbEzXaC1slJDDM3DHyDT5GKJvH15sXVrOwK67sjUr5ZXifPPQ41jtjN4UNoH4/wW8B+sPHdCmdS3AgpCT61XBaH2O56srrsuTRs0sKqzxNvu/vFmQLbkQzuwOZkwrXbqOQGOzfk+dydAgfXuCql7Y4J17sTBbChhaHsbmShTi1ys0vJwb6tWCHPGAUaLzsG6odyDuCUeoMHLuSgjZazXPLc85p+5gNOGusVHiSaNaL2gaoKjoAjHy96J8qVy3Ru3nzHWzBZQOtZNXr5S/IY0uEDFKLFkfxyxsfCBOHh2eIBNxL9ZDdJVAoDyXmSqdIwZJACP1NtNyw5Y0+tt0GjpQ/l02Rpbu3K7ua3uFP2Ae7Gf306rl8rtRudIVIsRrUF9tS43qfsLvAWwVg3D+WXKcDIdwq9m/T5biOl/B89RpcD+7+wZCCLr1+kzCUenRnYsORxe7wmbLyePSozhXiYuWfGx0OLVP1nDplGkmS/N/W7FOv0VSJARrwu9BwAvCgjOb+8DA+kPk3AGD+9uyYhlds1ZFCnZFnI3aE8clHw/TiyX50lkdL8musHGH+PodRNacLZtVqHRdeh2d85cvy/ydO+R1vDw30rcC12Xyr7ERNqmo5eN6fwZjRz+XY20coUMoSCPmTJfHIFY9kTa7nHTCJgC/B8ZHyq9GZcuOa3jYsakQPi2lqEW9W1IonZHf3myJNYsKa7wSoqUL1n8ZUySTzM67rR3hqIKmff21LN6xXUKnTJSbUPDZE1T1wga11DdHF8qUmnXKmf7r775VQcque779RpUjrhQVR8+elaSqWfIEyjAO82aXk07Y+EPwBMHQv5KVpqZ30KV1LaCecxjlshXL5A+FudI5NlK8aXytxYYZzu7dFcLj87LRsmjrFoh358rwr3HPOKfT6GVL5A8Qjp1jIsSbRtv6OEifEYVvgDh5cWSGTFy7Wvn/bDywXyIrJslPkvAewvArXxQrMdMIvA/838vcGpJWNVu2HT7sdLeZo7BsHLVymfwmf6QEmbufAoc2FSYWQiBO/PuGyk/xbsfNnqEGCnDwUBHuwRMp8RJkL85NeJgEIF0fXNuwRfO156LD0cWusNmNk3unYoJ0Rk2Zc0CxFUYrGlyFRXxQ2Lha3DA9s1BxGPN5UOBwKHsAxAXnM/KDoeVM2p0hOHoU5UrYwrmy+sDeNkf93XLksCSghvzjvEzxQfqBOJ4SVzphA2P758njZUXtrmu2qZ6O2oyC+wIECyfuZLwenbAJNAub18aMkon0nHdBM3ntmVPyh/JxchPEqn/SMOUkbCtqOEeUP4Qsg/O9PLbYJV1gVws2sdcdOyZhc2bKrakQixAQbKXSCQwKj674j/3ei7dvVUa3taKdhob99JNRI/5babF0QbrNRTzmebnHDpVn87IkZe4smbt1s6zZWydr9uwBXF+j8Bp0mP9nd9+avXtU15srR4HVnT4lf51QKrcgX30hXjhdgq2oIRzqzVm0f1ecL7WoqOnSuhbgs7oHz3nG/LnyQgbKb4gLNT0ExEEjwQE8YbBvgnDoN7FMVu/aCRGuT9Mel7/+Sjbu3ytJMObPp6OcxjE40sr6GAzUR18exrf5S3GhzNy4QU6cO6dgS8+fi/LlNoifEIivZv1t8B+FZ2eIoBfTkmVazXo57YIKni378LwUoXL9Wm6WmmSUE3MGDm2++ykIguup5HhJnjtHVc4pzLcePiQxs6bLA7huOhOzNbDRvsCPv0MU/RTXMxoVKN356HB0sStsjl44LwnLFsvjHBmVBuVF4dHMXFFtxlpUEB5Pt11raI2w0WJKKyBjuOpmYxfXE8W5krhkgZoUsS2+LhsPHZSI+XOkG/KYzsFK0PCYVsKG80P5Qdh447j/mlou6/FitYe/z5VgO2ounAriqfwRqrWETtFNhE06hVwcjF24vD9+rCzZud0lQm47Cu9flOSr1hqKFwoZ2xabEIotGOLbcQ/+hrze40KDc6WxTKz6JsSFGwwcZ/jWiQviHRcht+P6B0+rkJo2jo6hodl97KjkL10sb43KVb5UDAqoOy5hF5hvYpTcg/v++qgc+dekMumJmu0XFZOxvpaZZAfT/59NGi/9pkyUHFRsNh50XZfndhiaZ/KzxDcahlMjaCxwdNADwxOkJ86BXdu6tK4F2IqxDeXooMoKuTvONKWCJRCfteAgHJp9N0R25NQpsqEVzznLIXYLfT55gtwFA05hwtnFLel3Bjy+BwTJI8lx0hf3eMlO0/xPfC+2oyKbBgH2chZsKvZVQ8UtQkYDfXHYanMjxMDHE8fJvB3b5NJXX7kkcB/FCFtZilevkLeL8uRGCI9mu5/YhRZm6n56MilWEubMajQdwiKc20fjxqgAiQEQkCEaYeMFUdQF1/JBcYHMRwXG+nyaw9HFrrBRjmeoSfy1YqJ4J1nmivqhC5sG2E3kiQL4xswUebW0SIrZzNiGWn0NRMqQOdOlG66bwfnqj2UlbDjFArvEuuBe9Jw9TWpQCF6rjsNrD+yXIVWzpDtnhsX12hM2nITSPXKA/HfKBDXRHQsFXXrOsAnG9lEISMbG8UJ+hrAFzixoGqCxjZWnIbzi5lcpHyjuy4KkI0Oflm+//051a/DZ4GS0C2p3yadTJ8n9eG446ojOwVphAcETDOHxGApbjlLkaCbbvHMGHn/jgQOSMm+OvJidqUZccRoH3bHroaCkzxXO02/YYPGLDhP/KNTwCApVlwBD4gdj729Gfddt5xJw3jAEWiJJmHj2C5XbYQBC2Qpbt1ubl61h89HD8igqpW6D+9idRqETW3Fg+H+Jsj1t3mw5dg2P/GMrSs2+PfLPCaWqtYGjkUyiprGwCYoeqoTCU+kpypmXYkiXXnNwJCp91n5fWiKeuM+BQPnUmI9BYcPjM4rwz1CWJcyslA3799c74vM95RDuQag03Yl3jkOkm/O1IYwNE0RhgLRDId5cFbjvyNmzMpqiBpUP+v0w+F6AnZYawu4nPzyzFDUMIMjI5NbpMUTEayjXOVJM6zgMPPv3km74LwzCfr0TwtLRxa6wYcafvXxJElcskTtGpooPChw/GBrVatMeLTdWokHRwYUNCQTsNroXhiBi9gzVlMwhgLr8tAeNER/2xVC5oXjIb0KanqkJjY9lFjfeMMKcZqFHbobELKhSqr8tjp1Xk5m43vcnlsqduL4gCIkGUWMlbihsIC4Ya6bfzKlq5BjzS5eeM6yEiHwQ6bvBsAQzr5uImgZhw66yNNSkT180zSNDYUUP/q++0aD7nb9dKXC8S199rSJ4smuzYtMG6YOC5+mCbDVFQadk04gnnaBga4lPYpTcie3eKy2WSRtqVHehbd45A2u1y3ftkAF4rh9FfodA1AQ001pELMO+/XEu/vGR4keBEzMUIudaZQhElB34H7ZxG9QbRmCIJM6dpd5pXV62hvWoPDwE8eLWP1Q7GoqExIZLF5zD26PypAzG7VqNiUUuoxxdv6dWPmDL5IBQ5XSr5mxSmAQHpzugkL0D+fG7ghwpXbVCjYjSpdccnFdqVs16ebswV9zZZRMJ8WE+RiNhM6iPvJiZKvkL50nt8WN4TxsqZszrudu2yL/HFMm99Adi6wb2UeeM56MpQ9UM4O54Xn49MkPGLFuizr21PnCELXRj1qxUgwVuwTkz+J49UWPqfuojgQN6KUfhRFRMd6KSaDuAho7/jyF/2YoVYCcdj76hcgdEVDoqULVO+HU5utgVNhaWHTogofNmyUN5mWpOHW/gi8LPH7U/zhGlFRKtgULGYsgpRPgbBFWT7VoL07Q+hitAmp4wgl1giP89aZxM37xRzVjtjLhhMyBnQp+2qUb+PXmc3MCWIFthQyBsOCQ6BMb+jTEFkr9yqew9eVIZNF26HZ2yDevl2cIc5F2i+FNIaIQN58uiw7Zb1CAZMn+OEtu6tJyB8YKmozD5MQSpexResuH2hA2AkX0YIv5Pk8pUvKXR69dILgpCxj/KXb0Sn63gdwuNfuO2jJnUAoyr1BbMaYzEc5FSvVAGzJ4mvy8rkXuQl24sDCEOApKGmVqmrISERUxwUkqOBGQwwshZptZAOv7q8tBRzqFiNBfvxD/Gj5GbUCulsLEbcbge/s/pFjhSjeeGNc6tM/ZVIJ3rBvM1ubNbBLXfsrWr1fQTurx0FnbLzN22Ve4bFiHudoQNA/NR2HSFIf0n54dCZYMxnnTpXQtQ2CzBu/3Hojx1zSZhQ6HRIGyCIQ68YFDvQ77/d2yxzIT4p5O1Lr3mOInKQznKgt/kZJmG0kdxeDZbv6yEDY7vMbC3GjLNbTm7/vf/01CG0XeNc02NWrRA3oBQ4cgnChe7/ja4DgofXwipu/H9H0X5aiqI1kzeSbtz4NQpKcF50bfqJpw/523yN4saFUHYSohwTX8Zdj89gcoJHYU3aVq6WEZnLJgndyGP/fFc+1ulY52eR5+ecjeuddyaVWoiUdt07OHo0qKwIQykxnmjHs9OR+EULQFsvYGwCYBgCKFYcAWZKaaWCaJEAxhh9X9rYRqWdJiu5RgarEdDOYoXDAf3+c3YIsmGUWGkZWcKB6pdRj8uhdH8IwwAnZLZPdLkWBA2nij4KXz+OWWCqo0fxQNxrQ71Lly7SrrDiLK1xo/GtpGoMQkbtk654VnzhEGOXrpIm46zcJ6pfIiNH+EYHjEohCwixg4cGUW/j8BhYRIUDVCzdgrGyYEwC4oaiM/NwP8jQUQr4H6W9HGsQMAuFt9YiBm8r5xYUi8iGqDjrm9chBqlVrZyuSq4dfnnDIxYXFmzTt4aXSieyGseQ3fsxpiETRPwDHTitUAQXFfAwLrBUN2XGCNVO7a7rGuZc2wxyjQdV9miYCtq6oUN7svN4D8Q74xizkBpbBnlvHUmLjj42fLd0e2tP9ti+c85dhw9IgUQ9S+jXPEc1BvvAoVNQ4sNxYbF7+VhPIt9JpRK9c4dTg9IYMV1P/J31OKFahZudjeZhI1J1FhQwmZAb/l9Ya7M27hBK0BMrZq7VCyXxyFuOfzbB2iFjRUM3HcPRE7mgrmyC9ft7CS1dFLntBNv5o1QcXJ8hgxQM23bihALlu6nJ3COUTOmKkdh29Zzfj+H60mumi13Ia0gCjVdVxSEjXuvz+R+XMf87dtUS7N1Os3h6OKQsKHx3Xr8mMzYsVXSllfL3ysmylMl+SZH1/hIU7yX+AgVzE/FgUkieGGTHYTb2qLbrq3YOY47aoR02PWEIQ2gyKGTsK2wsIM3u0sgyp4vzpOkxfNlw+GDKkKxLh91cDQVHY/TYLhfRp4G4/jeNOy2x6KwgYG6OWO49JtRKdW7dqqIsK5oxbjSsJUpCy/Vg2z5g3jwZQtVI1FjEjbs/vQFD+ekS/661dq0nGUHnuMkFH63pSaKB/0LbISMLUEwtgxaR6Pvg+19YAxM8LP1d93vWKNG7Iv3wy4QHya4Xbj4tAqr9FSa4eKHY/slREJMNO/TwtYazt0UBCP7BJ4tBhFbu7fOJU7ppy+cl0mrV8pro1CDhnGhsOHxdOfRmB+QsIlHmYla8APJccrvTJePrYF+I/GzZ8qtEDaMYaMTNorYSOmM5/o+vA/PZ2fIb0amy2+vBhAICn7GebSGV7D/43hnb8X1UNQoEWAjbChAOPXBT3G98dOnytYjh+RLJwLzEVZc6e+XUTVLTeDoMVgnbExDvd0got4bWyxLtm/VDnxg+U1hVYEKwF9KClXcGgqvlgL3BWCbENAdZWUaBJaaS8rBSi67r0pWcELLLLk5eqh4Ix06CofYCBCLCPEzdz89mRSnnqltRw5DjDTNM+oE+tsMqayQO8zCxp6PjVvoJ/IgrmXd/n1N0mkORxeHhI0FKjI6Uc7ZsU0yVy+XvgvmKOfid6H23wGvjxstL5UWyXOooT0FQ/9kUa48iRpgxyVHRRp+OD9LbsdLwRYCz9R4tVYtNw745lDYBGQky5MFIyRy/mxZs3+vUxFq6V+zYu8eGVg1Ux7Ly1JdfD50FrY9Fn5jxOFb8Tl23hw1twlfMGeHKV5t2ATKWDQJC6rkPoiWABREHEavEzZeuN5OuB/v4JmavnWTNj1nWYV86z1rmtwEMeUJUa4TM7aw+4aRiVuF2h8CokXMx2kzVmnqBIKNiODILx8Y1zuGJ8hHE8tkGudnOn9O3Sdd/jkDa4WjIWBfLshWrWOOCxtic97tJGws3UK6/64EHK3kB+HxTFaaimquy8fWsBwVn54MUodn3JNG3lbQWMGWGx9sQ18ft16fitsXH8PwXEG++Ejcev7XDD7zu267luC5DwgV/4iB0hnPW4OosRE2g/vLsxDx2fOqVFeQLv+ag47DdPyNYCsL3huPof2bCBt2eQXCcN8A4fhx+QRZXbsbZb39EZ27UeEaiQrX05lpSkyowH3RzTsTcxs3CI53igtk3tbNcgoVieZ8ENXop9OnZPTKZfL7ghzpCuHlBZFH5/xOOGbnSCvxge9cW7qfHk+MUY7CG5oR3xyltXZPrXrubsEzHQxhE2xOzxoKKN9+ofLzlHg1tY0uLXs4ujgnbAAVphpxAaPKPniGsD5z+ZJyNNyAWkJ13W7lw8AYJUWoZY9au6pDQ7+E+MXz5cPKciXEbspMUbFigtk1Zum+agaKEHbLdc/LlEFVM2TFHudC0LPpbu7O7fKvyilqji1fGHV/O8LGHYU7Z1BPX7JIDaN1hSPtlcbUQnVYwmZNlx8zn1EwMIaNTtiwC+omrEOnTpaVLhotUoln862yEgimBPFm1wjEQLtja6TtojPwzqJL15qGbYMhajj8+iZ8fq0oTwpWr5DdJ5s2MbcGtspxAtvMhXNVXBoV4bm1woYC9zpssQmGoGQrIGfV/mBskUtjyFRsWC9v5I+AcIkQn2EwujZiRgtbMLG99r/2gsdUIsSCtRhpBTT6ut+BtbDh5JfFixfKSSf8OyywdWT2po3yUelouS8pVjxhqClkrIWNH44TgvXPUJbFzp6uphVprpuRTsVbDh+U6KlT5MmUBBWtWLU64d7ZChrLNdIXh5NSPor3akDFJFm3D5XqZmwPfXzGrFgq7+Rnyw0QRb6Ak1Wq9KxETb0AGWrqfvoJRE3EtArZdfwo7L/9Cg+72majYvRBSaF0xb4UNratQPzOLq+bkT9/hCBz9pl3dHFK2DQLCkM6rFHNMm4Go4YeQkZ2dDhJHKMHcybyeTCeGVCz708qkxsgVrzTYJRsBYYNlhabnxaMbFWLDUVh5eYN8s7EUtXtEgBDHqK6w2yORWGTSGGTKrk4R04lr0uvo3MBLx5n6A7Fi3I3XvoQCAwO9dYJGwbmuw15kQzhyf5zXXrOkrZ6uXTD/WIXEyMOa4WIy9EYa7tYtm0tujQtsBXH1Drkj8LQi4YFRvU3owslB8/UDif9w5rjLAT7KhS04TMrpYe5y5qjnVoSNhwSHojnPCAhqik4V1fBEVfeseHiFTNUwS5DPxhZBqtzFZyqgN2LTN8P6dv+74f/PGBQODniQNT+GbVVl5etIXX5UrkZwjUQxw0CWlGhgU7GVwUem91iMRFmwluFrZhpDPICAsQNxvWVvJEybsUyOX3B+VFg9F+avHa1im58Z1yUCgLI0VYN4ixcfNjiget4MydL8hYvUCN/WgpVwXNh8L3/jC2Wu3EtbJHxp+CwFTVW0I8nZHBfeQrvzriVy+XQqVPawSsHYC/GckJLXPctyAtOKRHAfS1pWQkb1f0EwcTuJ/rUxKISyjg1LZUNbDEqWVYtv8nOwDn1U11R1sKGXVCcKNNrYB95GGIprLJC+XTp0rKHo4vrhM11AgVDwarl8rNROcIJGANhBJtzKLb42PyyOE9SqhfIRggkZxwA2b86af1aea20SPn6BCE922Pw+IxE7AXj9GBuphSvW6PmKdGl19E5A+FbuYVzYo2XOyhskMcNk182xj0uXO7GdY9B/rgqvkb4onniNmywGgXEriK9EGkPaLh1YsOapobeecwjivC5oUvK9B+FhR/EIn1waPDuRr6/W1qshDJ9j2yHbbYFDjmv2r5VPikfJ/fjHpqEjem8mp4zR2XFij99fWDkQuoxO7g2+s01sLXEPw7CA/lgER2cDJLReV2HaR4mps+01SzaZigiAmC83FAzfyEnU/k8uMJh20L4grniFj5QAmjQzaKlwwMh0CAOrAWJa+Bs3mxZ4XHeG1MkU2vWKgd3Xf41xx68KwVLFsszmanSheKCwsBK1BCv8EHSBeu/FRXIpFUrIIZOtzgsm62cdMploMbXRqSp2Die9I+yiA8N9LfxgQi5Ec/R30aPkukba9R0NZZWV/rdqOlUcA7vjcpTLSWMuuxrFkz1vjz4Xt/9BFESgjR74H2MmlGp5n6yPVcdjDLO7ir6LwUO7q9abCyiRgkbpB8MQeXR9wt5Nj1FcqsXqnJCl5Y9HF0MYWODZZbtntMq5AGICAbEU3M2WQkNa0yjolLkDbOB2IUH05laL/0Z+NC9MmaUcmCmgLE9hgoGiONQ9DyP7SZt2nDNBtLi0PaclUvldVwHu5kobJrGsAG4VrdhYXJfarxU7dgml79yzWiR8LkzxX1IH+VUe0WFjTLgOjFjS1Oj7zjmNCASTCOhrL/HqOHePvEREhg9SB7Fs/bxpDKZt32bHHeRT4019F2gYH93dIHcinPwTICYaEbYUNQEQnTdhXvSHQbjyZHp8sR1zE9Rq30sK1W64ro/mVoumw65Nthm+OwZ4t4vVPl5sEVEKyQ6EhCB7S1smBdM+7HkOOlTPkEWQXhTBOjyrzkYGI8jf+7EveOcU0oY1J+3Cc4q3hW/cy6qORAbbM1w5B2jqwf9cQZUlMsdSbFqhFRIC742DOxHEcFWls8mj5cdjG9mfpZoJ8pQUX+3MFduhHjxhlBiUMgmafA3YOl+oqgZUjlF+cA4WjbsPXVKPhw3VkV91jkj1wub3p/Lb3OypLJmvYrErEvLHo4uhrCxgX2UNYcPSsyCOfLEqBzxYFdJs8ImUfni/G78GCleu0r2nD7lcGwZPjD7Tp6UvKWL5QXONA0DaE/YcLbvH2Wnyz8rJsq8XTuEwyJ1aXZ0DuJFGzh/tvQoGKm6oShsmogaM2xZeRCica0LwsyzBsNRZAz05z6kr2PCBucWDAEQQFGg4NxR9qEjLuedMjnxMm2r9JUBtxIbdrE1+rGqNcP6OH7AKylGPAgKIHbZeUA4eMCAcR4x95gh4h41SNwiB6LW3l/ccL3kBvz3PPJ90JwZMmHDehWrhi2G7TGyrvbYMRmxZJE8hpqnP86L0YR1w85N0ygMUzN//6owW40srNiySebX7pJ5ZHd7sFPz25WF11eF85gK41oDQ8n4Sq64D+o5R1r9UDGjsGFrwrUpbIheoLQW1WWEdJ9PT5GEmdPUrPN0eNXlY3NsPbBfYmdUyi2xEeLBofQqfevzjhBP/N4taogMnjJJVuE+c6Sso75rbEVagMrcP8cUyd3IFzr4mgL32YgRM2y1YZcUAzH+LC1Z0hfOU7F5jp45I5PWrlaOwrfFhKvuJ3Zt1Xc/WaeB9P0G9ZXAAb2Vo3A08ofTezgjtutOnpD36JSMY/hCyGiFDQSfR+in8reSQlnbivx3dDGEjQ0sYNYc2CdDqmYq4+uIsOkCYfMBlHI5lLkzsWUoojhHVMK8OfKzQoqoeO2xlLDBfzyfoTgv+vGc+9L5mkZb4EvJPmIGweLDaA9eU3PXvxc1+X9XTJI7cF2+MPj2uqFC0hJU98Xj+SNly4lj2rScQTmz4sX7aOpkcY8YYHJktSdseM+x5lQiHOodTHFhhn45nHpAB/1D/BKixRsFNYd7q2NYxI0y5LYiRkdjw1/fhWV1nE6oyXEG7q7Io5vTk+Rm5GE3cBvyjV13D2Qky2MQhE9mp8lz+VnyalGuGlnWc2q55K1cJptQC7vkRKtia9gGYx2P5/oWnJc7u140ooatN2zF8UBePYRnvA+eC04O+eU1Ov9ZR4DvKLsV/zt5grgP7CNBMHouEzZ4HxUu/Yxzs5yfRtjo/GhssRYvzcHZt+kL88aIdMlZME92HTnitE8Zy7Z1dbUypGKydEOaFDCm9K3PO1w8wvrJrVgn0j/lwAGnI9IfO3dOiqoXypvZGdI5nIH7BrUcuA8CiBN7vpSbJcNRqUhaMFfeM0+0yajG7H6iqLEeSq7i/GDfgMEQT+x+ShgmEdOnytp9exoFE3SEzbBlv0Xeduax2NKkFTb9xf2Lj9XIKbbqfvOdc93fji6GsLGBLSFzd22Xv5aPkztGpqnYNs0JGw4P5zQIoZXlsnjndmXYHVXmdLJeWLtTQqdXyEMcOWLnWEH0UYBxe6Y4X42I2noMhsmFzdaOwAJz36mTSoit3bdP1u5vyhr8vmrvXtl14oSqNeqaMOkF/+exo9QM0oywrHMcZisOh4GzteSVcaPVpJW26TgLR+8trNstf8AL5cHAeUp02AgaM5xmgbOKhyTHyF0QrY8XZkv3wpHSHcKyR94I+YnqTkhTa9NnrtOkO7iTLW4QHkEoqEM4+oVGXKVrFigtYjL6asZxnEc3pPfwiDR5KtvchYGC47nsTPlNQba8O7ZI3p84Vt6fMFb+MqFU/g1x3RvCLWr2dDUNxOh1q2UOnkkKmZN41ujUzlFpLJwdfUZbC0eBROM8bsG1e1LYmK/LGgob3gcKm5/nZKrmfdYSmxsWa9A8HLwxZ+tmeWf0KBWvJSgG4oCioTl4fxxBjZhy9Werc6BIoQ9MPSaj3SIObWfye+G27+EdHrdiqfJTdGY6AraosdV3/pZN8sX4saqrif4qlvQbMAkeBkfMgoDa04ph/LQjFPlRsA1PpcRLIISCI4H76BDsAxHElrogCCJ/nAcjAKt5s2y2VaAsDEG6vgNClahhoMCthw877W/H8120Y7v8On24dGYEYxxTJ2yCIKDce34kYVOnONyzYY2jiyFsbDh+/qxM3LJBnoDx9YfIYMC+5pyH2X3UDetBMytVYDNnmpMPnz0jUzZvkD9PKlMiyp6wYfeUB4TAq6XFUgZjxei5zbWKtAcnYBiz16yUv0HwvTgqR16CyHp5dIG8PKbQzCh5qaRAXoLxf3/8GElZulh1y9ka0I2oyb83ulANMfaG4Q62ETWEYoczmN+dmSKfVk5WrTzWabQGTnXBEASvjClSXTbs3tEJG7bI+CdEyUO4H6krl8nM3TulCoJojpmq2l0yF7/N3QW4tmLOrh0yfecOGbdpgyQumi/P5Waobq/gxGGmY2mFjDUNRt8X18+usF8hT1ORl0v21KnJLNmNsnD3LlmKc1mJWtXqA/sUayAk1kMUbEb+7kBByglZD589q3zGWlOAtAUWiqtxfpxluVtyXMvCBgbtRQg1OmQynkdLo0cM7EMH5IKl1coh2QMGK4itGtYixgb+z4BwboP7tgxq9G4De7sYpqlJd0AvcesXKm59Phe33jo+M8Wt4bp/qPjhGhqiDOugsBkoN8CY/6u4QGbWrFehNpwprymCGJupfM0q+aAoX7pALLB7x/oYhE7KHNH0WGoi7sVi2X/iuDa95jCJqEsyY0ON/GtssdyMe9WisMFx2arjj+18wgeoIePMF3ZT6bZnfvlhm8AwOgrHSOSMqcpRmC3vunNqDvry0KfuOZbhEC/2ZgYPGoJnrU9PGTJrujadlnB0MYSNDRzrXwIDeCcMtFtaQrOihrizVp2dJpHzTLVNXZr2qDt1QgrWrpTnxhRIpwwG5ktSkYdtj0Fhwxg276BmPgu1hdYMUWwrnCV6+PJqeRb5wlmX3aJBzBBxix3aANS/W8QA8Y0Ok5eK8mTtwf0QNg0CjEO9F9XulrdQsFDY+NkTNvidQ9t/lj9CUhfPU6EDrM+lNbCLMLl6gTyJ86dfCod764RNIGCUYV7nzpOtH1LPeVjSFs+Xn3OeMgglP6AXM7aYjL6fEjYJ8lxhjiTWR7Tu+F00qkD+8rLM27ZFPi8fb2qZY+3cfF3WMP+VsMFz8wYMRfna1covwBljY9AYtkJEoJb/GN4jTxgvjsSyJ2wCIWq6QOQ/npkqz0EIPd8S2Rny/Ij09mMkwTEU+JyVpvxhnk9LNq2teAHl5MtZqSBNfoHvP8I7bXIOthYz1oSL59CB0hXrnuPGCCMBO1s5pOCm71hB9SJ5OydLOkUNUc641segD48/fu+KvP01tpkAEXQYFTxdeo6w9+QJGbV8qbyIvL8Rx6Bo0YkUa9jVZEH7P88V60CIn+DB/eQxiBpGC16NypOj0Ytt4WiubOTLEymoHELY6KZSYLA+/t4VAicFFT9dOi3h6GIIGxs4NK54zUq5a0SaGn5tKzKsoejxhOi4ozBb4pcslK1OxlrZjpp10rLFEFEj1OirEHZj2ByDBELwUNi8P3mcLNm1Qxuau71R8Wf21cnA2dNVXBI6/vqxu4bnbQVbGThM+2Fss4QtWFZ9qIchUCZsrFFOol1h2AKQhm5EFAMk0hn29bISmbypRk476Tmvg/NxcaTb3chPBv5jy4xO2PjjGugo/GJJgexoQxcYu+E42mgSzv8x5AWnVwhEuiFaMWOLyfDT/4Q+Oz9CPv+5rFjm7NymRpU5OkrhavA17vdBVA7Go/b2Z9y/zrgGL/pTmK/JmnphA5HMbrV5EO2cOFOXroFjsKXun6XFcht9vSBqGNlYJ2ooePxh3B6BKBixtFoJ0fnbTcyzB7bpEOBcFu3cLqv37ZFVe/fIxHVr5G2OKjV3wehbbkxdUd3iomRA+URZiwqWLv+ag4607GJNrpolz2emSTDEiw+7eMzHYIA+DidnwL57IRY+HFsiVZs3yYlzzgcBtPAdqD1xQmIhPH4K0cBWGOVrw2OahUprCKGD78Be0h3nOaBismw6eLBNLaWMSBw9c7o8koBKI4d6a4SND4RlMETNLzNSZQIqMbp0WsLRxRA2VlDB7zp2RNKXLlIRfpsTNsGZKeapD1LkmTEFkrd6hdNRFLcdOSRxC+fKLTB87jSsmuNwcs4AGHu3NBi3aVNkJcQC+zN16bUnzBsGNByJQvC53CwJhgDwgcGlkGkEh2nDkN2N/JvMYY7nz6uI1UyDE4RmLa+WZ/JGyA24XkYcbiJskKcUNu6x4fJnCDlnIznbgyLll0V5KtAbW2tsBQ0JAYHD45Qz7nuTytTkr7q0HIXdcGwpKt+yWV6fWKrmUnOHUTHNsk3jrhM1xGz8IQoCUBP1Q636VuT126VFaqg8nUOdrW1eKeiMuRMCP7t6obxekC0huFZv1VplviYrOifHqTmq2Pr3HmrR1TBWV0O0X09sx7PxDKeHQW2cfl46UcM4OsEwjJwf6j8w8owYf+HyZTl76aIakXMtQAFMocHhwjUQOP9AWeHOrjcYba2wgeCg/8l9eOaipk+VDfv2avOvOS7i2Vyxa5f0hhC4D4KceWjdSqSETZRpLqoeKQkyGNuthIBydkizLecvfykLUIaETiiVhxgbCdfpSMuNjobup76q+yl8eoU5YnHb3jvODP8x3uEfx0drIw53ihgsXoP6ShcInn+UFMoCCFRdOi3h6GIIGzM0QnTIXbd/r0TPnyO3ZKWKBwtgndgAaqQSDCB9Y/40qVTKUTN3Jooim9vZnxkxZ6bckolj0bhqjsNuqACIhZuy0+SLubOkxsXxLhyF4oTTaJShdvQyDFYghI0XjbNF0FjB4ce3In/iF82TTYcP1Rth+oJwqHH37AwlJOhLoxU2+I/DlRnfg0MIXRE4btOxo/Ig7qlbVBhEhX40FB12GbjvEdzT3jOnqqjUurSchddfum2zvDh+jIrd4wfhF5Bo6poyxXWxI2wA/2eUYIqDkIRIebE4VxKXLMRzcPCqCNyWYHcZn+t41GqfRj7Sv8gXz4P1NdVD40AHa/z/n4pJsmpPbYe8pmsJ+rA9hDznnEn2uqCUsIGR+2XuCMlYslhOXoWubVfxFadoObBf/jWxTM1iTidZnbCh4LkBa87Jlb5grmxHPunSaw7GvFmwZZN8MLZYxXypbzkxUz9lA0TD02nJkjp7pmzBe9rWgR4cOUTfnrHLl8jvsjOVb48Pu8CsBEtLNHQ/DVTdT4/SUXgqKsp1u1X6uuM6w5SadfKbnEzpFhOh7YaisPHs30u64b+hOG5NK4QlcXQxhI0ZNu+fQk1gNpTnp1CxXUekCkft2AoNCxZh83B+lvSaMVUW1+5SU+fr0rZFiSgU4Jyhu9e0CjWqiqOrdMfxgbFn9OOnGOOjeoHsOOb8EEVXwhgjb5bixcY5eeOcTcO1G8PJKztj/ceJpVK5dbMSYhRy07dvlfdQAN0BIcfh1NoYNhQ2MHru4f2l36xKNQrBFSN4ao4cloeRtlskXjp7wgZCLTglRn45KlvSF89XXUm6tJyFopAzCK+GKP3zpHFy2/BY8Y0ZolozmoqaxsLGArulvGGwGOjuXjybDEewCjVVpmtpEesIUJisgEDpD2H4CJ9hiJdAoLsmtkbx/+4QnBEQ7RxxdzVE+/XEGhiMh2LCxa3fF3aHebMbikbudyUFMnn9WhXLSJfWtQBbUVbt3iV/HT1K3PuHKkdZ05xNDYKDzryMYfMjiGhOg1C2aoWa4VqXXnOwRWsWDPg7qNhxjibllGt1nHphM6ivvDwiTYqrF6rjuKJ1leXn2rpaiIIKeSQZ5S7Egt3h33YwdT/1lscgavpPmai6j/i+uaL8GLViqXRHGRWI8/Ibqhc2Hv1C5U7kT271olZPCeToYggbMxQ2HG00bFm1/BgiIhiFMgWFTmwQJWxg2H8+KkdSFs6VbUcdFxw8FmtJMzZvlA/Lx8uNmSl2RRSHerPL5mZs06tqhmzmNPtXUdis2r9XBs6ZIT1yM9XM22y5MQmUBoLwWxD+ux3nn7ZymYqCyaHtmUsXy+N44emL48/rtRU1Zhjojt0Tg+ZXydcuKBSYX3N37VBRjNkSZC9+DYVNJ4iO308cK1M21ah5vHTptRa2ZiyDGBkEUfL4yDQJiB0qfnERmm6pxgLAgpqJG4VzEATB/RCHfy+fIOM38DyvbEyj5uBw47nbtshfIWA74TzZYqOLYUN4Lfzv1wUjZQSMACfNNEZEtR4a3oqNNXIv8tU9rI9W1HCKiuDYcFWD/zdE9jIYS/rP6dLr6NAgcxTYnI0b5HeMAzZAL2zYOuWF3x9IjpNPysbIbJS7rYnczgkzyyGKfpOTJe6DepuPZStsYMAhet7MHSEVa1bJKRdVjghbjJahMvzhmGK5JyZCvAb3Uz4r9pyELVi6nwLC+kp3iJrBlRWyZk+dy7p9eR9y8P4+iOsPYARkbYtNmLj3/lzuhbCpqEGZ1cruOUcXQ9gADuPbDQVZBCPx4qQycYNx5jBvndCwoEYqwQjRyZRqlfNk6NLWwa4VzoY+bv0a+dOEsdIZokVFMNYchz48FDZuMLi/ocHdvEGcnV/DlTBwVAXOgc6et6cnia+dVhvGgXFLiJRPZ02TtagZjEZN5w+41q7JMcrpmJN96kQNR0QFQ2QwgF8aChFXtNZwNt7SdWvkbggIdwgme8JGBeFLGib/riyHgNvn1GSmzrDu4AHVQvHkiFTpDGEToJxrOfycBt++sLHASSI5RLpbSry8U1aiAkPuP33KJV12bYX+BNPwHv0WNWg3FKgUYabutqZ4xUdJFwibD0pLZArehWO4T8aIqNaz9/hxJRDvSIwRj/ABdoUNY9sEwyiHVk5RMaeudDgAV8GWkP2nTknZimXyKsQGBYVtVxQ/U9h4hA+U7ikJMqh8osnvxclKCwPssZWhaPFCeSkrTXU3NT0WhA2EhjvO453CXKnCe+lqZ3i2ro1ZWi1v4XpvwDWx28dey01ncywg1f00pJ9y7KWj8LLdu+Trb1xzzylqKIzTUAm9H9ceCGGjG+rdCf9xeP79EDZLdu2S775r3Xvu6KKEDY0HHxI2a3P6dD7o1zO8TkZevfj11ypw2xbUFEesWSk/GTtKfCFoWgrKRyhs6GPCkTsTa9Y63A1FeA61eEkKccy3x41W6dkXNqbWIY6aui83Qz6ZNkXFMzmCmsAFnD/9XtgiwWtqT0zPxTfqeBuOHJJPp0yUe3Bu7EJjC42tsGGLDX1tfgUB1JszPOdmQgDFiw/Qz+ZtwguGrgvWf508Xqp27XBJMylbAlIXLZDbIWg8UFvViRo6DgckxYhPXLh8MXOq7EOB2V5CgenuxDklzput/FD8IbYad0vphUAjkE+c0LILhOJLyFsaNPojXe2unDMXL8iUtavljeI88UBhrwIh6s4feMVGyE24jp7lE6Rq62bVisnzV+8pnrPrGrxL9G1whXC3QIfYodMq5BYIRk86l9qIGouwCYCx84Vh7j9jqpxspyk1rgR8VrajLMqYVyXPUmwwZgsMp62wUa0oQ/rLk8MTJb6yQrYePqTyX5emPegnQ3+Z1FnT5RdpyWoqBZ0/D1txOAXCexD2C/FMt2YuqubgNXOm7ZQ5M+X54agE4j7b9bfB+ajup0G9lU9NH4i69YxTgwqbK8pVwmeYlfRhqMDei/zgjN5NfGwgang+jEn0KN55Z8OiWOPo4sYXi5m1HjeNkytO3bJRpm3dJNO2OAi3vYaYCsZvqpG01cul9/w58pepk+U1iJMehdkqIB9FTSDWzcWv8c9IVnDupo9ROMzbtVNNxaC7ETr4Uu2GEcpfvULeGlei0mxO2KjZvdkthvO6KydDfgkB9m7FJPkMhjFz1XIZV7NeDYu+EnD4cvryJfLqmELphvPhyChdiw27p9hqcyvO/V4Y7xB89oMQZEuNdtJLwlawuAi5HSIjrXqRCtamyz9n4RQU9Neh464n/Q6sBI21sPGHuPCLHSqDka+8n640OrZQjDKQHqc44FDVTjiudwwKZdVq4xgUDQEQN50Th6mRapEoXFgbPeeC4fGtgQby4OnTUoIa5a8KslWrUnPCxjchWm6AsPltcYEMq5ol49aukal4ltniU3mdMtUMu0PW7d3jVLnREhxp8o8xRdKF8wuxFm8jauqFDQweDeIwlH+u6Oq9WrArZf2+PcoZtQfFBoyo7aioemEDIfIsthlZNVvNtK1Lrzk4Ems5KpRhKHe7QyB5cOiyzbH4nVMW/Ah5HDp5gqzcvUv5AOnSay0sk9hCMhu2+sOxxXIn7jWDAdqKGp6X39D+EjC4rxI1g5SjcG27CC366vRFRfdOiKhgiKwgTYsNu8wYBfn5rFTltqFLyxEcXdx4YvSkT1yySN4eP0bemzxO/jRlgryPWlTLjFexVf50DfHe5DL57YQx8iRqlDdxSHdClLihlu4GA8FWkZa6oAhFCFtsfgWDlLliqWx3ckZv1kj3nj4lJWtXybvj2WLTXFdUA/40/DDAbgmR6nxDcK5P4TrehDhi8L53cF3ty1jVwvTi6AK5B2KFYkTnY9NAkvjBgHlAMARA2DRspxE1gILHLTZc7kF+zNy2FYWCa17Cqdu3yJvMZxzbB4ZWJ2zY/eWH/7yRt5HVC2Ck9Wm5GsbXKV2/Vt4sypVbcU/98SxyJm6dELCFgoGTSHrT7waFaQ88D6yFz9m+VTk+t6cw06FqtShLhs+bI7/IyVStY80JG/7HlqcHMobL8/kj5e3RhfIeDPP7KLD/2IgiE3jf6j+7FKtjtBvma8H1sTb/r7LRMnx+lVMjKVti9NrV8tOsNOUc7EdjaxYz1vA/Rhu+CetUlPm6dK4V6FPEEAH/LC2RuxLx7kLAUFxYhIYFCht3GPkXR6Yrh16GoNCl1xwnzp2VOaj0c0jz/clxymfHVtj4UUxizRad+FnTZdP+fTD87dOdvecEA/ctkVdwTTexVWZIf9W9SFHDeaMCcL1BYX3lIVTk+k2ZpOKfsaVQl1ZbME3hsUn+gWf8ZiVqIPhshE0IvvsN7q8m4vwAzz1blnVpOYKji9vxCxdkBGqNz5fkqzDufulJ4k8jikKyecwtF8oRFLXd1pCm+c3yuw7dttY4sg2gj4cPzpsjjtjNQ4GgsBESOriNF/bnNApfTC2XxXhg2D3jTNMeu/04+2o5aqd/n1QqXZSw0TsP28LzZMuGH4w0HY55HbwefxhmRYrlc5z22h3GkpYNFCr8j6009gVNA9ym6XY6UQOxiLQ9U2LlybJi2eCCiS8tpK9ZKbehpsBh5PZi2DBgny+OzXsbBbGqS6c9oPg4eeG8VKG2/afSIgmIRMEAgaMTAs3BIeF+icPkVlwLHXfLN9RA3FxZXyw6BC5FrbD/tAp5lOES4iMkmCPkNOdbD4SNanmCOPOH4fWHwW1MOBgq/jFD2gmmbz5OTHsdB+nWH2OI+MEA3RITIX+CyNnpolZJEg2j7WM+TgijPduIGkJREwLuH54g2Sj3delcK5zG8z194wZ5geEjYNDtRR5mKw6jML9amCvjVq5oVeT2w6dPS/m61fKHUblyB8SCaabwxsfhJJsMBPjbnCzJX7xAao8daRcxYWHfyZMSw8B9SbHiN6iPctwNjISoiYCQGBAqj+B+h04aJ2v37lEtR+1R0WH3cSHKy9fzRkgniCt2RVnHsOkMGNfGs3+o/AT2I2H2DDV0XZeWIzi6uB2EEh04f47cXzBC3FCoe8Fo+sLQ0tekebAdt4VBaj8SzJi/p1v/13ooCijgAnD+jogZCyHMF+zXBfs9X5wvI3FDdx53foIzNtlzGDNHj3xWMUm6It3mhpY3AfnPqQj8eR3Yj7Nk+0LI+MJQ1MPvgN0/raFJelb44XgmP5m2YCVskJ9sMfGMGiTPF+VKXs1aOYnamC7vWsOwxfPFF8ZFDTvGcXRw7iiO8nowL0tycXxdOu0FCxz6pszatlk+mjJBbkiIEk9OXoiCQCsGNHA4OMWNPwTCrXgmXi0ukGzOvXTMdYazJTjSZAZqtf8aP0buxj3m7Ow8r2aFDWDsIH+IMk474Uuj0YRIFfvHD0JJEReuugz9kEdtJxzPhgn9/67BF2LDD3ibpx15GPkzdEalcvrW5WVrCJ81Xdz69lQG3t5Qb3ZDdYuPlrdRfk3dvFGbzrXC6XPnpHz9Wnk4NVG8G83Z1ACD6FGA3IJr/9vYYqlcv051K+nSa446CNCc6kWqyyvQ3FpjeyzOG9Uleqj8He/elDWrlAF3ZpJNZ6Fo2nTwgGQsmCuvZWdB0IQJ5/PiPabQSJ1fJWsgatiqotvfFbDFcRAqMj0glJWosWmtUcJmyADx6PeFGgI/ZsUyOdUKYWnB0cWt9sxp+eNUGNfsNPHJGi7B7GJwFM6D016gxldvyPmZjDSj295ZrNN3AAogPxhgzh/1UMFI6Tt7mlTvqW1VuH+27rA7in2e/WZOhbDhZJoo5K2O1ywQNhQDjcRBE3Riwhl0adqi288ZkAZFDT4HpsRKFxisQbOmqWktXFkgDJ07S9yG9DWN0KGA1AgbTqNwC0Tr7yeMlek7tmnTaW/Of3lZFtXuUrN109HZD4Vxc8OldVCgcdLJIBi2l/JHSjoKY/ryXInZ4A/ASI9bu0reQK32ZuQnh3Ozq0x3njoogKxFkOWz5Xf6Hykg4OhX1Bnpu4JOZnT/uRScc3BclAr9/yryaPza1aq1TpeXzsJWYA7jdQ/92ORnguPphA2nUbg7OU76Y9vVe+u0aV0rcF6xMSuXy124VjW83UZoEDpKsxWlOyoJfcsnyqKtW1vlZ7Lz8CFJnjtbbsV75T6kn8mXxeZYnvj9JvweOqFMFm7ZrEZetbdjNm0JKy8lyIe/TZ4gvx5TJB+gsjwG7yF9FNv7+HtPnVSTdN4REyG+EYO0M3orYdOnp/y+MEfmbd3cJqHl6OK25eRx6VGcK+7DYyWEBl8nYOxhKxZciU546LZrDRahZJt+M1DUuMMQe2emyDt4cKbiBp1qY2ArxqSJWTRX7oSoVFF8KVY0x9bSorjRCQln0KWpQ7evIzSk4U3jh+v/9ZhCmbipRhXSuvxqDfR9CpszXdyHQtgk6YWNyXE4Ru7Bs8HIyGsP7NOmdSWgMyln6f5vxWQJYNcFjFEwW5rMRt5R2L3DWcqfQC1p8IxKFTaf4qY9CzpVq11WLU9kp0sIjI2zosw+TMMKjiBj2jTe1xAUG0EQnRy9815piSzatcMltWnGxeIktaFTp4h7/16mGb15TBtRQ8dh+oE8iHcgU3WVON/a3FHgNfP8RyycL3dAuHgM6t1EaBDVZYT84ISaCXNmyvp9e1s1e/U2vJMJM6crPxGPwX21x/LE77dgHYH7sK6uTlVeXTX6qDlYXnKkE+NZnUJFm2u+6/y9vY/PyS//XJAjXSPDxJMtWRQzOmET+qkSQGxhol+vLi1HcHRx23TimDyUlyVuSXgRdOLFHrZiwdVkaYy5brvW4oi4wf8hgHNCuaFA9UeN/u3J42Tsxho13Ppbq5mrW8MRxoSBQHrfHI3XGwUOAwM6JLraXdgQXbo6dPs2T2ecO52FvVAAu8VFyH35I6R00wZVQOvyqjWoAv/sWQmdMVXcIweaHFntCRucx4MQARkrlsiuNji3uQK++Mv37pF+VbPkRj57MIb0n6GRVxN3NjH8TeFkm/50MAf0d+k5dbIaxXjs/Pl2cyredfSwpC2cK/fgvtLXo1Oy/tycw0bUkGQIvWtQ3FiEDUP/f1g+wamgns1Bo7YWBvtv48eaphWAgNELG1OtuntaskyuWa+C2+nS6+jw+eU7UrO3TmKmV8qtKtqvvsXGW40YGipvZmeY/F4gvp3xe/n+f3Csb76WVbt3yuApk6TbsCEQMP20x/II6yO3YZ08a7pshwH//goNQLiaMFr473My5UaIdc50rm+x6S/uX3wkPWHn2HXVloqro4vbyoP75cGcDAgbFBLZGgHTHDrB4Cp0xl23XVvQCgjTb4GZKeKPAtovLUECwO056fLW5DIpq1knB884P1xQB52Odxw/LtnLOHx6lATD6NJvJohDu5uclw3XsLDhSCo/GCdOSNkNxutnRXkycMlCOeri0O6q8Dt4UP4xZaIKzKeEjZWgsRY23ij4H4awmQBxdaINfcCu4ju8/BuPHZF/zJomt41MF4/4KBW3hl07jvveMNaNyUflrtR4+YDP74b1KoaSq50a2RLEOXti58yQW4bHmeIFOeEj1Dx2xM21JmxwvmxNYQC3XpUVSljwPuvy0xnotM0h5G8W5atAdPaETTCEjRdqz/QTWbh7l9OxXDoK36FCST+ZBagU9po0Tm7ijNownjqx4YX86Azh837+SJm4arkcR2XSGcPKyhFjlM1BufBZ2WjpinKEcWp0x6KovC0uSsXVqWvDkOZrhUsQfEtqd8mbKDdvRJ74KcdhGx8bCJsg/OcW+on0ryhvcxgNRxc3dqncm50u7ikoKJwVNkQnGFyJtTHX/d8WIGwaOw9DLGDNVhMviAtPdg+hYO0OUdNvznRZVLdbzSflyhrv+a++VHFWIufNlp/mZZnivQDLKC0LDedopsP42RDdvnrodOwFYeMZS4e+cPnjuNFSvmWTnPvqK5d3k7BJ1jK3lUfMUOWkqhM2HBHlhv8fwPO8cE9th4jgS1ibrzt9SvotnCedcb+9YZgoBpsafnuYRABHJvliPwbze2FUtoxcuVS2Hz+qCm3dcZ2F7wObvlfAWA6snCI349ieHJXT5HzawrUvbHi+FDYe/XvJkJnTXOZHxkjkuUsXy3McYg/DooSNxnmYQ73dwvrIw8MTZB1q2rq0rgUoTNgSO3ndGvnL6FGmuD00qBqx4RU+QG6IHiL/LC6QmRB/LG+dKWdYFrCVYcLqlfIXVMA4ASWdhG2Pw/g1HpFhchfKwxFLFsme41fOaf9qcerCeZm2sUZeyRguXSCY/W1GRFkIQn55DgiVcFR6Whtx2IKji1v26hVyJxQXnVc750CoUNw4SiNxw7ULsaTLVhXCz8p52GY7ayzn4whILwgCwRviwCM1QQk7xoZRMW2A1/BYeaIoV/rMni7jcfM2HT3sdBhuR+BLxjmJGGY/a+Uyea20SLriXtDQshWN81H54mVRw7wteUEobtIdETcW9ELDPtiHaTuCg+kH4Lo4QSZbpV6DoBmxvFqqIRbbq4XkBF68kcsWyzOjclQUZI686oJjszvKGv7O/H4Iz/T6I87P+tuesEZfg9pfPPLqFwUjYSAjxZvDeWHc1fnj3JujC6AwCES++yRGqf1+gnTC5s+Rlfv2Kj8A3XGdgeHm2WrA6MGflY+XrjiGVzyMq825tA0r52HC62cLHMRC5wTAdQeHwobOw50hbuIXzneZsGTk1/5Ty+WB1ETxRNqcMZ0tNpzdmwJHiRwQDNzCB8rDWWlqtntdWtcCFBsHTp1Ukyn+amSGdGJXLYQF87WBCAUFT1f8/8X4sbJ0xzan3QdYudh59KjkLF4gb0A4coSVNwQM49dYUJNs4vg3IX/fKMyVSRBcHAChS+96Ys+J41IAEfc0JxWGsNHN6s1gffS7uQviMwPbtrVRwNHFLXRWpXSB8XRjkzWHUzsKDETDcOz2gsOY48UHcE4i/TbWmEL2MxpuA3Ea4sUb2/vgGtjtczNEzn05GfJ44Uh5tjhPiYv3KibK8BVLZf2B/S7pB28J1kJYOy9at1r+O3WyPAdR9RDOicKB/j3erHVj7YNCnfnhA2Plk4zvNFgtMqx1wHCY4Gfr7w2/+2LN4eHNB+pjS02CikR8O0Tl75C3ZVs2yWkXDunWsQ+Fy39haG/F+VG4sMXDNGy4AXbTsBuKs34/kJ0umztoTYvXMnzpIvl1ca7cnBAlAbgeH8BhxJahxM0Cse4RM0TcogbBuPWX+3FPQismq/g5rJF+9U3rw/vT0Ow7fVqKUUl6uyRfgnA8HofH9IVRcQ2m66yH1z5sCAzKYOUg2qHhOcLwsVvEP2KgPIC8H4lKTFt8DazZhWf2TRjdANSM3WB0vS15gmeaPjUWOCTaG8d/tjBHBRXVpXUtwG7UXUeOyNDKCrkraoj4hPUVz7A+4je4XxPcBvRSLTa9J42X1bW7tek1Bx2Na/bukfDpU6U7DLgv/XlgqP2RvwFmfJHnbuED5AGUhT3HjZUFW7e0Kgjgtca6vXUyhIIaYt0/rJ9qsVFCxgqfwf2lE9bPZwyXsrWrrpyweausGDUsGCkU8AEwnCZiOgYwygEwnvXotrEFBplh5tlkH6gD/wViOwYWvBFG9qmiHPnblPESvXCulNaskxX79qiowCcuXlTzSCnP9jbeDEeg9zoLOk68SKfilfv3ShoM2evjRssNmSlqRE8AausBEKAN4DodwnofJ0B+BbD7A4YkALWgANSAGsNROxEQQaaJLdnNpBM3wchrBr7rDBH5NgNGHTmkjGF7jtAh21B4/yJ/BGptMChRZJAERNuA31hIuaPW9URxvmy9yo7D9mB+HT13VsajNvh+SYHcSqM+pK8EwHjxGvQMbIIpHwZK4NC+cvewwfIXXPOkdWtVbInWtiDQuXIT7mk83iHOfdUlOkx8IZ7UucGguhyVLq6HQCx0eNS5Qlz0D5WbBvWWN/NHqolLXdVis/XIYflZ4jDx6PO5+ON4FE+mvBkgATDuATAu/oP6il+/UPkxnvNP8Q7uc2H8nCvNl19/LVsOHpDPJpRKUL+e4tenp/j3/UICNHj37Sk/Qjk1EAaYgep06TUHp21YunO7/AfHYuuMD4y0F4QNoxxbYKuQ56A+8hNUNIeisrC6tlbOXWq/2DEdhaotm+XPxQVyI8tPPF8+EDb+yB9OgkkCkU8eA3tL5yH95U9F+TIbldkrJmzGbaiRFBjQ2MULJH7Joo5FNVlohc3/ZhJA4tLFkrK8WtJWLZOMVcvVHEo5a1ZK/rrVMmr9GrBWimvWy2gUKGM21cjoLRtl3PYtMmv3DlkBEbENtZ4jMBwXWzEUsD3gSIdaGNmFUMXjtm2WsTjnXCje1OVLJEHlBe5Xo7xpB/hMkEXztSRjm4j5c+Sd8aPlgdwMCU5P0oobFVUY4oaRrZ8dXQDBcWVaRTjBXwnEahzPd8FcZXj1zJO0FUulYsd25ZejS6sjwELh8JkzshQ1z3E1a1WAyLSl1ZK+DODZb4kMK9KWLJQM3L/SNatk5Z461W3X2hYE7ncc+y9DOkV455KR33ELqkx5y3w3UMRWzVKzIE9HAc/Kk6sqTJw+IwdlYNTs6ZJge1wcLwHEzJ0tQ6ZVSDa2W15XKxe+cu0cRlcSCkI6Xs/dvlWG491NqJot8cjbeFxjA/iO3xJx7QUrl8kqiJqTeEZ16TXHReTTitpdMhB594uM4fLz9BT5BcFnC0+lJUuPpDj5a1GBFON95HQHrIjo0rue4Hxnf4VguTc+SrpEhknX6CFyc/RQ6QYBSDj0naPVboSwTMJ92OkCh2pHF7ezUJZ0xGKURAY8uhY5Bo7jGk7jwWVcCL60bPng1OxXorXlSsEXmtPW19+vs1b5YPtZ992W5v5vaV9A57E9p07KpA3r5YPy8XJHRrISMBxFZi1sLNB36b4RacoJ+5sr0L3HFiE+Cwz7feTMWfN5c22N6VpcPVndlYATGJ7DeXOkAZ0i1dpRsD33ZXcg4zGd+/Jym8IXMK85Cs30fJ6TI9q8/mHDd5bTXLjCr8kaOiEfg7ih6NUdlxGh2d3IWe7paKxL41qDzxtdBBjBndfOSunRc+esQH4Dvvu0Bbo0HIHHYKC7ig01kgqhSGGaDtHOaL8W0uZBPM6ZqYIFrt+7V53TlYhfc7Wp2b9PRqAS02dquXxcPkE+seJTM++WjZZ/VkxWU624YgJORxc3PiA0mNcDHAbI67FAUXM9PWC8no50v3gurK2zlSNv+RL5+QjOx2TyYdIJG87cfTdqN2PXrlai6UqITkfzi9vp9u/IWJ4HV+CKe9HRns+Oiqufe5ZxuuPYQgHEtS6NaxGHnjezTdDt7wgWFwGO+jNVCi43riCYf2OFmq39V6KLvaPAa2VXHQe/cPCADlaaGJ2fAtEVz72ji5tuZwMDZxlXs06eLRihWmvoT6MTNp6J0XJLWpIMrZol6w7sQ4Fx/TfXGhgYGBi4BkcXQ9gYuIQZO7fJ7yeVyk0ZyeKdEmuacRwEWOGeNEy16LxcUqACxV2J0WYGBgYGBtcHji6GsDFwCZuOHJakxfPlKQ5RT44RLw5Rh4jxhqCxwN/YasORWhGL5qum2x9CX7SBgYGBQdtxdDGEjYFLoNPo4t275POp5fJycZ78fFSO/KIotxFPg58VjFSRnFOWVSsnux9Kf7SBgYGBQdtwdDGEjYFLoGPYsXPnZerWTSr4WJpmCHLG8iX4fbEkLlkgc3fvVHGCDGFjYGBgYOAIji6GsDFwGRyFoEYPmIcS2+Psl5fVBKCuHh1iYGBgYHD94uhiCBsDAwMDAwODDo+jiyFsDAwMDAwMDDo8ji6GsDEwMDAwMDDo8Di6GMLGwMDAwMDAoMPj6GIIGwMDAwMDA4MOj6OLIWwMDAwMDAwMOjyOLoawMTAwMDAwMOjwOLoYwsbAwMDAwMCgw+Po8oMQNpyPqAnff18/7b0Fy2+6NAwMDAwMDAyuHo4u172w+f677+Xrb7+Vy998LZe/NnHxqy/lzMULcuTsGdl3+pTsOXVS9oKDp0/L2YsX5X++/06bloGBgYGBgcHVwdHF7dSli3LiwgU5fv68HDt/TnEYBn//mdP17DOzF+yBEKi1YdepE7LjxPEmbD1+VDYfOyKbsK7Bet3Rw7LuyGFZc+SQrDx8SBYdOiALDu5vyv69Tdm3x8TeOlmwp9Yu8+rIbqmq3SUzd26Xqdu3SvnWTTJxy8Z6xm3aIMU1a2Xk6uWStnyJDF9WLanLqyVzxVIpwe/Td2yTJQf2yS5cG6cA0GWwgYGBgYGBwZXD0cWtEoZ/4qYaKatZL6U167BeJ7mrlsvw6oUyfMlCSVmySJLMJCyeL8MWzpXwRfNkSD1zpf/cmRI6Y6r0mtlA6IwK+WjqZPl7+QT5a+Vk+X3FRPnNpDJ5dfwYeRn8fFyJ/KgkX7oV5cotxVYUZsstuRlyS3YaSDevwUiQlSq3ZCTLLWmJIKGB1Hgt3czcTNJIotycniQ3ga5pSXIjuAG/3ZAOsL4RdMW2t+P/HqNype/8Klm8d4+c+fKyylR2YdlmtIGBgYGBgUH74+ji9nJZsbwwdpQ8N7pQnh1dgHWBPAXB8XhRnjxenCc9rOgOHoX4eAg8aF4/hN/uH5Ut9+ZnNZCXJffkZcqd2RlyK8UJhEpX0AXipMuINOkMgkakigdEihtEhFuGGX6GuHCHCPGAwDARZ2I4SIkVj6Rh4pEYDbDm52Su8V2L+X+SEiOeith6vJCmAukTz+H4PQnbAG+cB6/h3cllkrG8WtYe2C8Xv/7KEDcGBgYGBgZXAUcXN7e4cHGDAHBLjjGDzzD2FBgmkWEFhIc7xIg7REgD+J5php/TQRp+Bx74TPHikZkinsAL+GQNF1/gD4JsCDbTCaJHSxbIxP9cEwikThBLTqFLd6QZfka6IZmp4o1zZ34EgJ9BqA1bUCXrD+yTs5cvG+LGwMDAwMDgCuPo4uaZGC2BEBw0+iEw7BaC7YHtgiECGuB3K7gNxEE9Vvtap0+aCAxHoPBR4qYZAdRaKJYI0g8xEwyBEwCh9/P8ETJszgypOXhALnz1lTbTDQwMDAwMDNoHRxe3B7LTJCgtUQIgbjrnpEsnfG/SyuEsOtHgKszCo17cuFLgWKet0ocAw9oP+dMZPF2YLWmLF8jmQwfk22+/1Wa8gYGBgYGBgetxdHHrOatSboFR90qNN3UD6YSKM9iKBVdjabGxRrdda7AVNlbp0+emU3qivFpSIDnLl0jdiRNqGLku8zsijM/z7Xff2YXX8tU338iXZi59/ZVc+PJLOa+4bOZLOYf1mcuX5MzFi3L6wgXFyYsXTCPrLpxXHDl3Vg6eOVPPAWAZWUfqTp2QnSeOydZjR2XD0SOyHtSATceOSO2pkyo9xhXSXYeBgYGBwQ8TRxe3tUcPy6/Lx0lQRpJypGWXUZtbbazFgqtp0qpiEh4uQaVNrNI3w5aboPRk1br16thiGbVqhTLgusxvCfro0HB/+/138g1EhY6vm+Vb+0CgcP0VuAyBwm6z05cuqmH8h86aRMZ+Kw6Yh/bXcog+hMZWCIxtFBoHD8jyvXWytG63LDGztK5WFtXulqpdO2TGlk0yfWONVIIpmzbIRKzHbVivKFyzUjKWVUva0kX1JC6eLwmL5kvswrkydPY06TWtXP45ZYK8PbFUXhs/Vn4D3p9UKmFVM2Xy5g1y+Nw55IMpcKIuDw0MDAwMflg4urhdhPGbtadW3qosF7e0BPHKSJFAGnmdYHEEW7HgamxbbNqzK8qGEOSNL4TNzfj8emmJlNaslUMQBbobYA8aarZ4UDhMhCBIXbFUkkD88mqJgQCIrF4og6sXSN/q+fLZwir5eP5s+WTuLBNVM+QTiIJPZkwFFfLJdFA5xcQ0M7iPn0wtl4/x20dYfzh1svy7YrL8o2KSfAD+VjFRy5/Lx8v7k8fJH838HoLj7Qlj5LfjR8tvxzXwBnitrER+PWaUvDK6UH4FXhpTKL/E+oUSE08X5cmTBSPlCTM/KRghPfKzpEdelnTPzZSHczLkXjwrt+HedUGehkAwdgI34/OD+P/FkgL5YGKZJEMMVe/ZLV99+402Lw0MDAwMfjg4utRHHh6PWvgvJpeJb2aqeKQnSYitYHEUW7Hgatq7xaYFcUPYbdcpLUneheGfsLHGqa4TGunakyekaNUK+fOEUnkwO13uhaG/K5uGPhXGHUYe+HP4e1q8uKXEiFtStInEKFGj2GKGiNuwweIWDSIHmYgyryMGilv4AIA1P5OoMNP23K85Yoc2hsfSEiFu8ZFWWL7j/CwkRIm7NTh30zpa3JNjTMP3zXia4Wf+5xaLYwzuKw9AaPeEeFtQt1tOX7qkzU8DAwMDgx8Gji71woZdHAsP7JOHR+cpg8rh2NeEuHGlsCEOiJugjBTxT0uUYBje30EMlm/eoLp7rG+APdg1xNaa+KpZ8ou8LPGGofceHi/ebC2DYCKegN8DAY8RTP8nws8QncEQPsE4B7VOtwGCK5jnlsr9WsKcrg48A3qwn7p2R+C2TQlRJNpF7YvzC0wcJjenxMkrJQUyYdOGH1y3lJrTTEvDvGbNwfxyFG6vOwcDAwODjoKjS6O5oi58/bWM37FVXoKxdkuNE3/zMHCn0QkGV2MRGq4WNsSBVptAiAi2MHQbmSq/r5ggM3duk9MXLzS6CTroqMt5qbKXVatRVmwBYTq+ECR+EC1+XIMAtprhGOyiqQdiRh3fIr508H9uZ7sv0mxKYivQpWMP3f4tgf3M5xwAwecLcdMpJVbeHj9GyjbWyPnrfKg9/avovM25zS7iWs9eMjlqW6Cz9vFz5+TQ6VNygPObAa7343sd2HniuPKR2nz4kNQcPijrwToI6bX798nqulpZsWunLAVLdu1Q6+V1u5XQ3ot9v8T7rzsnAwMDg46Ao4t2EszRWzfJ42MLJTjT1CWiFS8toRMMrsQiMq6SsKEzcWBGshKAXbDPhzMqZNbO7cp/pqXaL1ttqmt3Kz+Z23H+ATDoFDLqWmyO4zQWUdNEZFijExTOoEtTh27flrDaH9fBFiivpBjpDHHz2phRMhsGmUESdfnaHGyVoFDgKK2tx4/JdnLCvAab1XxmJtYfPSxrjxxSrDx0UJYe3C9LwNIDZJ+J/Xvts4/skaV7SV09S0A1WKyolcWc36x2l8zbvVPmQWTM2rFNKrdtkYotm2TK5g0yCUKubP1aGbtujYxRrJbRoHD1ChkJYZy1ZJGMWLpYskDGssWSinXi4gUSs6BKIufOliFzZ8mgqpkycM506T+rUvpWTpHQKROlJ/i8fIJ8PmWCfDF1soTNmSFp2H/K5o2yBtd48OwZJa50+WhgYGBwtXB00QobjqiZj8L34bxMNR2BMvY68dIc1kKhPbAY8qskbCz4w/iqoeCZKfLXynKpgrhpyfBS+HCW8WrUlkNnVsotECOcLoJCiYJJdxyHaXdho0vPHrr9HaFxOiGALTc3JEHcjC6UyTDAznadcPj6OgiS4RADH0weL/+Bcf+wYqL8p2KC4r3J4+T1CWPlN+ClsmJ5enSB4pGCkXIHnuc7RqbLHSOwxvOmgOC/Iy3BPrifdySTGLkjMQpEA34eZv4cqbgd/5kYJrfh99sSIuVWK24B3azBPjdj+5uw/U0JgGvsd1NClHTF/zdifWNCtNxgpgt+6xIfodadsV1n/NYJ3zvFAaw7x4er/7nvLXjXXyspkLSl1bK7g4cz0HbR4ZlwFtsuOWf41sJ3+hAKxHa0I+Hv3J9dirprMzAw0OPoohU2hE3+ozeslxdLi9SUC0HslnJmGLhOMLgSa2NOcUMxotuuNTghbFQAv/QkNQ0F58T6y4wKmQ/BcvZyy86uFECLse1/UZO+Jztd3GEMOaRcdxyHcUjYEJ2gcARdWvbQ7e8INungegKHx4sfjHgXPIvvTyoTTt56AWJFl6869p45I/+dOVUezs2UW5HeHcgnBZ7rO5BvHJHVBce6QR0zQYJwP4NxP3xxPPf4KBAp7hAD7nHhJmKGgiGmzxAG9b/Hmv+LHlyPR1SYwj0K34Hp+yAT0fiswO/AE/81Av81BtsMI0Mb4TVsiBl8xvG9YsIV3vhMvHBeXrER4o1r8MbnBvg/9zMdvwvEz3P5IyVpwVxZvW+PnEM5QNGgy9P2wFY8UAh8BYH15bffmGAIgy8bd9GdOH9eDjF0gVX3nALf94FdbJU7cli2HT6k2HrooGwGNWDNvr2yvHa3LNu9U5aCJbt2yqId22QBnq/5gOu5WzbLzE0bZOrGGqkAk1Eujl2/VkrWrZGiNaskZ9kSGVm9SDKrF0jiovkSs3CexCyaJ7H4HDa/Sr6YM1M+nz1dPp01TfpWzZIcCMeFOAZbD3V5YGBgoMfRxa6wUaBgyVu/Rh7Nz0Jhn6haFLQiRodOMLgSW4PuypYbJ4QNobjxgbHkcPkbIG5C582SRXtqIQ6/VLVCbd6auYBtqlDI/bNisnSDcWWcnCB2S9kcw2EcEjY6MeEMujR16PZ1FJu0cE10KvaCwLg1NUH+PHmcrDywT8Xq0eWrLbVnTqsZ5jtBsLhBALgnmCdJJckx4p0MEWPGPyVOAkAgfg+BuOkEUUU/HxNxDSAtda7pVueNc1Pb15MgnfEbUf+ZP9tS/zv26Yx0OyN9BT9bf+dxNXROwX6gUz22v1tvCzTpEh+ItCAItJ+PSJOYubPV5K/nvvxSm6c6KIIoRk5DcOw+cVxW7d8nS/fUybK9janvmsN/i+tqZT5Exewd22Xm9m1gq2IWmL5ti0zdull1z1mYtKFGxtWsk1IIi1IIDCUuVi6TEcuqZcTSRTKSLAH4zi66ZIiMuPlzJBbXQ2IgLqIgNoZUzZR+ELuhFeXSc8okxedTJspHEM7/mVAq/wZc/6NsjPx5TJH8fnShvDO6QN4qzpOXC3PkhYIceTZvpDyRMVwex71/DPfv7uQ4uR3PEGGrXSc8Z+7Dws0jGMPED2LzSTzL/51YJiNWLFHdkIwnRRGny08D5+DzZxHFV1KQG1wZHF2aFzbg1KWLMnnLRrkfNVvPhCi9iNGhEwyuxNqYqxYboNuuNTgpbIhJ3CSJFwqtWyFuPquaIctR421pXim+gGcuX5bpWzfJP8vHy00oIL1ZIFJE2hzDYTqMuNHt5yi69Ewjvnzjo+ROGJE+sypl5f69DhVgrO1vhaH9sHyceIb1kkB2ySCNEBj3EIgJ0liQOEGq5re2UC+imqNBqLQeXbqxEgSxFxAXKc9kZ0g8BMDGwwflkoOOxXye2RK5YOd26TdtivTA/bo1NlzuhCC9MxH3DWWI+oz0Ldxh5nY73FZPlNyGe38rxS2+34Lvt+B7N6TJ7rmbEyJN4P+b8T/XN+E7u9lUNx2+K/AfuQGfu2B/ds9Z0wm/d4oPN3fXoczD9xB8DlaEK+EXgN8C8J8/8ENaxB8ExkIYWhHI37BNMFH/Y9/YodIJ6674/7akGIlaMFe1OrGLSpenzsB3oYHG3W6OYhEGrsDUXfddY8zdca6CQvrSN1+rcvQkBPWxC+cVtF0X8dxyG54Lr02XZwbXDo4uLQobcvTcOclauVSeHpWjYpEEZTnQLaUTDK7E2pC7UtSQVggbwiHYvhA3nAn9kcJs6Yca4UqIm/Mt+NyQo+fOyjTURv+K2uKPICK9kmPU0G7dcRyiWWGjExLOoktXh25fR9ClBXBdbFEJShwmD0H8DZxZKev27VXTQejy1RoWbrNQ+39/7CjpEjNUfEAXcyuJVmBcLTRioyk6oeIMujRjVSsO134w8Dcgj5+DuEmdN0dq8Bxf/prdUs0bBxoRttZM21AjH4wtkgDGVgrrLR6RAxXuEXo8Igbh/+YIa0B15bFLj91npu45dqUR1V2H7a3xiiJhDSANBT9jX+9hQ20YAgaLj1qbfuOzYmKIaQ1h4gNh4ksgWAjFDYVMkBUUNGy1sRACQeTHLkAc1wPXzZhTj+B5D5teoVq4dHnqKMz7kzDoDBrKbjl2w+1gJHFzF9yWgwdksxU1e/fI6t27ZHXtbllRu0uW4jO74xZDlLILzsK8bVtk9qaNqjtuFtYmNsiMjRtU19wU3OsKwPWk9WukbNUKKV6+VHKXVsuI6kWSVb1QUhYvUF1zcQRCLhLPVK+qWdITfME1BHTPWdOk54ypJpAfPSunSM+KyabWtMkTpOfEMuk5odS0tuFT/P7RuDHyIfhP2Wj5N/gQfIT/Bs6olLK1q2XrkcOqW1OXdwbXBo4uDgkbGgSO9hm+dLHcD6PJWCOWGcHtohMMroRixmLElbAhmu1aQyuFDWHLjTcMsH9agnTPGyGxC+fJmv37lPNqS0bh5IULUl6zTt6fMFZuop8HaW3LTYdosbGg278ldOmYwbUFQZB4Rg+RHukpEo4CkVNBcCoJXb5aw3hD0yFuXs7NlBtQA6dA0oqLq4mN2NBjK1ScRZemFTgPHxjlkLgoeRniJh3GiMbxkgMtkJxTbMnOHTJo6hT5Me6lP4x5MIQ6j6uEk0Jz3a2kvktNrXHuSTgW76tZTDRqjXEQ6+2t97f+vbWoNHh+IAR57Daot9yGZzkVxp/D9Z1tWWDZUnNgv0zbvFFGr1kpOcuqTd1wKK/jISBi585SRM+eIVGA6+hZM2TwtArpC9HQD+Khl+qKmyg9yyfKx5PGyX/GjwWmrrh/QSz8dUyR/Hn0KPkL1orRRfI+vr9TUiBvF1vIlzcKsuWVkenyXEaqPJmaJD2GJ8hj4Me4P7clxcoduDd34PrZWuURPVTccN0KiFQVVHRwPxNhfcRtYC9x6x8qbn2/ELden4nbFx81w8fiFmrhE9Na/fapBA3pL7/OzZJhc2er6WAOQPg5UhG6HmDLnXXLmZpyB1DgmdbfqLwgHNDCkaMX8f5e/OpLNVeg8mVDmUlYYWFIEwunIKIZeuLo2TNyDPDzqfPn5Rwq8u0lIB1dHBI2hJmz59RJ1Zd9D4ytVxJeTJ2gsaATDK7GIm5cLWxIG8UN49IwgN7PRuWgpjLPoeb8b/AwHD17ViasXyvvjxutHFm9YcBbdS4tChuiExSOoktPh25fR9Cl1Rh2S/mj9vtQapykLFko244f0+arLZyos3zLRvnt6ELxRo05mMPJmc8ao3lVsBUZWqxFSmvQpWmNaTvmTRAE4CsQ6dmobdedPKGa/nX5aoFlBR1jy1GD/1NpkdyJdOi0rMSNuUWo8bm4Aqtz53GshE1Hh+IxZFi43AwDH1U1S07BgDAPdXmrY+exo/IKyoiuMOC3IJ1uEA2qKw55TgFh4UYbboiJkC4x4fV0JnifOmHdQIR0wrYhOvBfsCJcgrGf6qbDOhDnEAD8hw1VBIBAEAQhoxg2BN+HiB+u15P+bsAfn4MhbuqJJvgN6aj0QQjSCMG2Ifg9BNuERJIwfLaA7zYwrSCusV2nqCHyRGaajFi8UHahIqTLy5ZQXXy4N7w/jlI/eq4JTbvV2gLfSwoKdsuxC46+cacgTI5CbBw+f06FcaANZ8sgHep3A653HDOxic70e+pkVV2trN5TKytqd6vWullbNskMiOZpG2ukEu90ZY1pXb5ujYxdvkwKqxfJqCWL8HmplK9dLYt2bJedSJeC25JntvnYWhxdHBY25DtkHDMlYfF8eTJ/hHgkREoQRYW9bimdYHAlFoPfbsKGIN1WoKITsysJ/HLsKElaukjNXs3Aa7q8tcA8rkMel6Dm9ZvRBXIzjLc3jEEIW8icETg/AGHDa/SD4Q3Gc/hT3LNUiBtO6slCQ5e3FljYHLtwQUatXSWvjspFwT1UfFEgdxhxY22km0Vn4B1Fl15j2AISgm19E6LkJuTzr1Ebz1+2RHbCKLAg1eWtBY5e4tQhfI7fKyuRW5GeP9IJQIWIrSv6c2otmvNnxUsjIjoibL2h/40XhEn31HiJnD1NdU3r8lXHDhiRF0ami9uAXqqVwz18oKkbLsK09qrH0g2HzxFmrP73riesMRAG9vCBAPGxrBVDTECE+AI/QHGjhI2FGGISKyafI4gWfKaQUuKKQDh1Rp50huijn1Nna/g7BFUDVvtpoBDyZWtQWF/xx/X8PDtDkhbMk+2HDzkV0oAVU04WvGjXTjUybnLNOpkE4z5hzSoZt3qllKxYJvlLqyUHZX1m9UJJQ0WAxxk2v0rC2PU2d7bqdgudM1NCZ8+Q0JnTJHT6VAmtrLBhioROLddTMVlCyydI6KTxYJyJiWWKL/CZ3XKfTSiVz8aPlU/GjZGPykbLf0pL5N/gX+DvY4vkb2NGyd9GN/BXVPDI+8X58m5hrvy+IAfrHPkd1m/mjpDXc7LktZxMeRX59iqeMwU+/yorTV7IGC7PpCXLs+CF9OHqt7ewz19LCuRTnEsZ8oZdo67yb3J0cUrYEKrCg6dPSxRu1F0wQMHpiSZxoxM2xFYwuJJGwsbmv7bSRmFD6HPjhTzqAlHyEh6o7DUrZAtqVy0FP6PqpuLNWrxAXi3KUwaGo6WYnu44Wn4IwoYgT4JgDDzC+8tLBSOUWOEM5hQvury1Zh+2K1y7Un7O55S1TRpDndC40ugMtV10ht5RdOnZgu1wTj50qIUw+S2E4KgVS+XAqVOqhVGXrxZoNOpQQ8xbtVy1jnVFen5IIyTZnK5LsTnva0jYWKDRdgvrJbfHDpZRq1fIkXPntPlqC2vkCag198jOVCOv6PhtSrOZPMCxOnE7F2ISIvr/XApEj2pJGgYxpBjqEGzx8YMIc4OgewZ5lblwvmq1aOk5Jl99863sPXlSxsNQM8jlmzT64I38kcrwW7rffooy6XFUkB7FM3l/YozcHR8t3WIjVcuWO46vutxwj3gObhCyboP6mASpNex+09EP9O2putdU91tPC/8Vt88/NK21WLrq2EXXDL2QLrv8rOn9ubj1acDdjFufnliDvl800IdYnR+OSaFTuKxatkJEsptLl7fO4OjitLAhFDcbcaL0H7mDI4FYkOhabXSCwZVQ0NCIt1uLjTn9NqAcimGob8T6NxA37MrbffJ4i+KGTYnsWsmA+n8F6plN+D4cfePoef1QhI0Zzj8VFDtEnsTzOAG1qWMo7HX5ag3FD4fa5sLw/hKiyDuig3RL2RrpZtEZeWfQpWmNebvkOAlBQU3n17dK8lUNlSN5dPlqDcXN9uNH1XP/y8Js6QzB4Z0QqcSN61pubM6ZwulaFDYQImw59IweJN1gBIejYvPt9/p8tYbPMbsc+s6vEncYfjpVB9D4N9cdZysWrjUgFlojbti9RXHDrrfnszMkD+VrLSqbuny1hlOZVG/fJr3Hl8rjCTHKbycIabHlia1QbJEKiB4q/ooh+DxEAvl/9GATUfjO+2JFYFQYfg9T3WTOMUhCCMSRw6h9wtoOu/y4Dkd6Qwea4WdrLL8PlE4DestDuNY+5RPU9C26vHUGR5dWCRtCR6P1hw5I79nT5aHcDCVugikIbAWOrWBwJdZGnuKG33XbtQYXtNhYCIDI4KSZ3bB+e9xoyUUhzxaZ5sQN+yUv4f/1B/ejgJsvz4/KkRuQBqMcO9Ryc80LG6JLzw4ZyeKbyFpouPwqL1NK162q7+NtDnap7Dl9SpKrF8iTI1MhjlCrg/G+uuLGjsFugrVxby26dC00bKdi4UAw+CJv2K309uhCmbR+nRyGMNTlqzXsft189LAk4zl+AeImEMKGLTdByZwqA+laHaf12Jz7NShsSAjgqCu3wX3kMbzDDJR4BqJFl6+2cDqQvvPnKMPP0VZMj2JJ6+zMFpt2aLW5YjQRNs6JG9+IMOmK/d/Kz5aCpdWy9/jxZrtXOY8anedT58ySnw5PUA7NnkMHiC+MvI8FGHBfM/5AiRclbEx+QZ0agXMh5nPqjPPvzDV+MzFEzzDC7a8ykYNNRGiw/Af8B/aRgH6h8gCuqf+UibJmT22bHLcdXVotbAj7HFcf2C89Z1aqaK50lg1iy8mVbrGxRrdda3BRi40CaQVzCHdqvNyKPHq7rFgFFqMPQkt9vAzytxbiZti82fJsUa5pRJrK6xbEDf9vUdzoxISj6NLTodvXGXRp6sC2fP4gCjyG9JbfleTLnO1blCe/Ll9t2XjkkEQvmCOPsGsV4iiYtX6t6LhSaIy1FlsD7yy6NC3otjc5AneBcfzT2GKZXLNejeZrqevvS4ibjYcOyjAY3p/kZIhfUrSKixWSrD+Gc9icN+/dNeQ8bA2FCNc+yGO3Qb3kLoiPcchjxmTR5ast7F7908QyuRlp+LFFgCLAKv1GXNPCht1RzosaCwFRQ8QPhvcmGNx3R+XL2BXLZP+pk82KG3alrKzdreZZuw3HV60nEC+69FvG+tytoNiBgOnQIO86QRg6AsUNW248e38m3ZFngysmy6aDB1otbhxd2iRs2KrAyK+MHPoFxE23dI7iQUFjabXRCQZXYitsVJeUZrvW4EphYyYY+KUlyK1YfzBpnEzcsF4OnT3T7DBl5jEDnq05sE9iF1TJMwXZamJIHxpyq7S1tChurAVEa9ClaYtuP2fQpdkciRIMARkSM1ieg5hcsGu7wy037PoLq5opj+Hee+EFVuLmarXc6Ay2FmsD3xp0aVrQbQ+UwzaNY5S8VzZaKjfWtNiqwOeYLZTrINIjF86V20akiVt8pHgjnbb73NieN7hGW2ysCYqJUN0ctyfFStryJdp8tYXP8aFzZyW0slw8IIzcIW4YTNAimBrxAxY2hC0pbGm5PS5KOc1OXLNK+Y7p8pXQAVbN8bdzu/SCuLklZqh4D+mvTbtlrM/dimtF2CDfdELGLuEDJbB/qDwAIRgzfapsPLBfm8ct4ejSJmFjgTFuOEvxv6ZOlnsgaLxhWFS3VLt3RdkYclcKG+JqcYP0OGkmZ/O+G58/hHplUL6j5881W+PlC8XYANXIY4aBfzwvSw119oEh59By7bFIuwsbokvXFt1+jqBLqznM+2UkizcneowNl7dLClQeOzLkkE7b6w8dlP6zpsl9EDQqsixq/lenW8qOwW6ErYFvDbp0Lei2N8WMCYG4YYC623Gufxw3RmZt26L8EHT5as2Fr75UU2GEzp4uP85OF7e4CAlg60qbxI3teQMO+b6GxY2pC2mYBELcMK5Lj9wsSVm9Qs44OL3FehgOjq4JiR4sbkP7qxa2Jse5roQNsRUP9mF3CtfsMvKD0f0R0vzr6FEyfi1H8ZxptuWG85Mt3L5NBQG8B3nohfvDriaOwLI9jn1sz93MddZiY0F1Sw3qK8EDeslPYiMlfuY0FabAEcdtaxxdXCJsCLtM5kDJ/q1iotxoDiwX7GqHXmsoOmyFh6uFDWkHccOh4J4ofB9Cwd5zWoXM3bVDiZuWhimzyX8etv0CtbHuuZlKIKluKQ4F1x2rwwgbotvXEXRp2cNqP1x3IMQBC3UGPKQxdXRagKV1tfI5ROfdSDMABiCYxrOJ8Ghn7BnsJlgb+NagS9Ma3T5mIEY40eaNEDn/nTJR5mzbCgF+qcWhnWxBW7GnTj6bMVV1YXN6CzXFhe4YDqM592ssnk1TcO7x0WrINEfR3JmVJuO2bpZTDkywS2pPnpR3Yaxv5vBqCBwlCKzT/4G32FjwiwxTw8HvRHr/LCuRipr1cgTihqE3dPlKOMnxnI0b5B9jiuVmiKNg3B/nuqWsz90KJWyIjZjoaECo6ARMc1DcBA8ZIJ6hn8gzKfGSMX+uGjXZkt2zxtHFZcKGhRlnBJ+yZaP8YcIY6QLj4pOGArrdW22AxZBfC8LGDMVIAAzY3fj8xdQpMnv7Vjl56VKzNQXm8QmImzk7tskX0yvkIeQtnZI5jYPuGO3vZ0N0aerQ7esIurTs0XjfYAhsDxg434RIebkoVzYcOazNV1vo91Rz+JB8WDlZ7kL+cVZsJW6uZMuNPWPdBGvj3hp0adqi28+ECuAHI9klMUb+MWm8LNi2rcUpRJRjPJv0d++UXpVTpBsKOeZx21ptiM15X/PCpgFO68BZ3G/LTJX0tau0+WoLhyhvP3ZMTerpPSBUOc02ciQ2hE09DAjoGz5Afow8+SfE4IyNNSqari5fCVvY2f06Y0ON/HtMkXSNGCg+g/vWtwS1jPW523AdixvCUVVB/UOlB+5hweoVsq+ZfLbF0cVlwsYC55WavHmDvAVx0w3Gm0OUQyg42kvgXKPChun6wfgGwog9iJpY6LQKmQ/BwlaZ5qZe4At1/Px5qdy2WT6DuHkwN1MCYdR9YYCbdEs5JGxIY0HgHLr0dOj2dQRdWvZovC8drdmqxe6OzolR8pfyCbJoT502X23hpJnV++ogbsrlJhhcfxiCQA4FtxUg7YXOUGuxNe6tQZeuNbp9GqC48YSR+VF6ivxzarks4cz2X7Y8P9q5Sxdl0c4d8q/J41VMLKYRnNSWAH425329CBtcA+ec8oYx4bQDvxozSsq3blIhIXT5asvi2p3y4cRSuQHGl0EA1XQOTNcQNgpLFxKD9wUOHSAPIm8Y+G7O5o1yqgXHeLbsVKxfK38syJE7cH98hjjTLWV9/jZcE11SrRA2EEMc3eUX1lc6DeotL6Dczl2ySI6dO4t8tl+pt+Do4nJhQ05fviQlNWvljfFjlIFR3VLtITqIrbDhd912raW9hA1B2qpbCgXNYyPTpf+MqbIMRoHzcrTUnH8E4mbq9q3y9ykT5F6IRk69wGHljcTND7zFph7mDQym27DB8s9pU2TriWMOzStFZu3cLu9OGKuGJXvBEFy5bimNobaLtXFvLbp0Lei2bwzFjRvy5yZUZgbMnSnL9tapUSQtzY/GeaVmb90sH0wqk5shIOmUHEzDqzlGy9ic93XUYkMxwnmlGAn4Rqx/W1osC+p2q1ZyXb5aQ8O87sB++W3eCOlK481uKYoaohMN1wJK2IBGgsBWODgHxYhfxCAJhHjsgWdxYMVkqd61Q42stOej9x2gT07Z8qXyu/yRcgP25WgpNbxbc4ymWJ+/mWiC/6xFREeklS02hEPag5FXnj0/ktdgpyasWQlx03JASkeXdhE2fJEoboo2rJeXy0pgXNktldA+rTY64eFKcdOewsYMh26zW+oB5M+wubNkrZpJ+etmxQ1ftMNQueMgIN9Tk2Ymii/ymM7J9WkbwqYeTijqDmPnnxIjr5UVy45TJ7T5agu7par375WnxhaJJ4ynFww4pxnQixFXozHWWqyNe2vQpWmNbp+m0AmY3JmZKr3mzJC1MKYXWxiRxmeck+3R+fhfqCV3TYoV71gU7K3qlrI57+tI2FiguPGDMOkaHylvl5bI1G1btflqywUIoPUHD8g/sY9Xn55qRNA1LWxIO4gbQl+ZgKED5EmUG4MrK2QlyuOzzbRAcrTf3pMnpGjpYnk7O0O6ML4NW8Za22rzAxA2CuzP4IHB/ULlaTyLc1DBYUVHl8cWHF3aRdhYYN9ZIQzvsyX5MC4JKgJvCMWCKwWOVtgA3bat4QoIGx6D3VIcpvxkbpbEzK9SE5K1NK8U/XH2nTopxWtXybvjx8gtSMsb+ewHQaNabhwSNkQvBhxDl54O3b6OoEvLHrr9TdR3SyVESmBqnPx9RoUsObBPm6+2XIDIHL9jq7w4sRT7w7BA3CjRoRUjLsbWWGuxNfCtQZeuBd32GiBGKGw8UEj1yMuS8LmzpQbGtKUZwQmb/GeiYPtz2Wi5IzlOvGOGqpFXznVL2Zz3dShs2HITCIOuxA2M+38nT5Clu3epOEG6fLWGEePZOsbRP11QW/aGAVY+N7aC4VqC4qaRMLAVDs5hESNsuekcGSZPpSVL7OzpamJIjuizV9nkiModRw5LIcTNGxA3t0Ac+QztrwSAfYFjfd42/CCEDVtuhojvgF7SuX+ovD0iTSbDljU3yMPRpV2FDTly7qwkLVkoPy/Og/GOl8DMZJO4cRW2wkOJGmKzXWu5EsLGTBCMsycKmqcLsiW1eqFsO3bEoQKL4qZk7Wp5rbRYbsD1uyGdAIqaK9JiQ3Tp2qLbz1F06dlDt38DFDdsuWEMlX/PnibbzpyWr5tx2LamYNMGeagoVwJhMP0TYRB0QsTV2BprLToj7yy6dC3otm+KGgYOccPYNHQofjInQ1IWL1DiRrVAavLUmrOXLpn8FcYWyY0QkMEM4EcRaXMc+9ic93UobIiaNBPPrxfEyYNJsdKrfKLKY0eCnrF7cOHOHfJyVpp0hrDhzNdKHFyrrTcuFjYWKEboTBwCXkhLkZQ5M1XsFbYu6vKVfIVyZNeJ4zJywVx5FUa6E/KX3VK69E1Yn7cN16uPjYbOUUMkeHB/8fj03/JuTqaaUZyx23R57OjS7sKGrQpHzp+TxJVL5f6CLBWgzo+jeFzVanMdCRsKEQbfC0Kh3D07XdIoblALaG6kFGHX3z4Y6JxVy+WFshIIm0TxQh4HWoaBNytu9ALAOXTp2qLbz1F06TWHLo0GOGmmb1K0BGelyOszKmTnGce88i/CcMys3SX3o9Byj8GLTeOpEyOuxNpQ20Vn5J1Bl6Y1un3sQ3HjCwNMv5snUHuNWVAlmw8fUuJGl68WVBf2pYtSXrNO3h8zSm6AsfVhbdfhbimb875OhY0FdksFRAyS++KiZcj0qbJuv2MtkBygUAGR/lsYEa/QTxpGS+mEQ0ennYSNBXZLBQ/pLy9npEpm1SzZefRwswKSXX6MrJuKbV9KR/mL+8Oh5PpWG+vztuIKd0U1mirBGSBI1NQJFCeKxtMpmP7TYLsNUCIHQrBTvy/kRbzLK/fWyTea1jFHl3YXNha2nDwusSuq5e78LPFIjRN/ihsKh7YKHK2wsdmmLTD9KylugC8MGp1Uf1GYLSlLFqpARl9/07yzK5uZWVtIXbFUnhlTqMSjO0QknZOVsGlXcaNLU4duX0fQpdUcujQaE4xn0I0B3EamSm8Y3vUosHT5ass51NhGrlkpT+PeuEej0GN3ia0YcSW2xlqLzsg7iy5dC7rt7cOWmyCzuGF8mhdG5Ujy4gVqvqiWulfJgdOnpGzNKnmzMFe6YX/63DjWLWVz3hREbPG5TsUNW278YWCCYBS6x0dL7JyZsvv0SVUW6PLVAgXk8QvnZezqFfJWbpZ0HtxPdZtck+KmHYWNEiMQGL5DB8rNyONXs9Jk1JJFshvlMfNQl7cWn7FVtbslduY0eTIlQULoc2PuluLkm0zXRERjcP4W0VAvbNgqooGCi61tnFjTPyqsfs4qOpcTr8hB4gVRxVY9LxzfAue38mQsGYg1tca99xzY28SAXvV4mKn/3D+0Kf3IF+JRP7t3T3Hv/XkT1Azh1tjOIG7GvTfW//27eHz0d3kLZV85KuoUitbdf44uV0zYkLozp+WjeTPlDogbd9SaA9iioBMTzqCEh5UwcHWLDbnCwoawW8o9IUqeK86TkRAre06darHlhmw/dkRSly6Sx4ty1Sgpb6QTTBHZyPDr0AsAx9Clp0O3ryPo0moOXRqNoc+N3/A48UatvivyJ2zRPOUT5kge01kwHffkPorGxGgJokCyFSSuwtZYa9EZeWfQpWmNbp/mqe+Wio+SLhAXL0LccBZ1zvRNfwRdvlqg0diP5z2/epG8UZAjXWDA2LXV8tQLtudthvfHShBcT3RG3gbDuHv2+Vyew/OYtbxa9kIY2jO81lDcTKpZJ89wvq6wvqrlhmKh87XULUVh0w4OxA2YBIgPnYEhCt7NGylj8e5TfDc3iTFj3CzbvUsGTpkkPxtuEjccSh4YTgZqCSARZJDCHzB4YBMgZjjBJoMuMv4O71swhBCn3wjG+QZDNIVQlJmvQU2qydYVrG/E/12HRchNBNfFubK6Ic1bcKxbzdyO77dHDq7nThzrR9j/LoLjkR+pNb+buAfHuY8gvfuwnYnBcj9+ezA2sjE4t4fw+0Ncq8+m9SPgMdzTR7DfQxA5CRWT5dTFi42eZUeXKypsOMJkz5kzErp4vvhAgHikcRQPDJFOTDiLRdy4usWGKGFDGoRHe8ORUnS29ocAfAJGoWT9WjnoQJcJDfPukyckFTWLX5QUiAf2V47JWgFgjV4AOIYuPXvo9m8JXTrNoUujKcqhGPlDcfNAXpb0mT9HDpw7q81XW46dPyelMAr3psWLR3QYDCiMg06YtBWdoW6CtXFvLbp0rdHt0zKc5NIXAv3GlBh5c3SB5K1aJntOn2xR3LC5fz+Mx6hlS+S3+dmqNcGHBlflif5YJjTnfh0LGwshcRESPLiv/ASfSyAgHSkr6PPEocpFy5fKyxnDxQviKJiGEGl0thUQ7Um8vc9RSmTZBdt0hqE0tXhYt4S0DvuiCGKBwgFGv9OQfvJWTqaULF2sxM23dmKvsJWBPmM1B/ZJ0rw58gLyN2RAqLiFfqwi75rgZ/DFR+LZ61Px7BdqajmByGRLigeO5wGR4QFDr4CA8MB5elDI4frvShwm9yXGyGMp8fLTtGR5Kj1Fns9Mk1+NSJdXR2TImzlZ8g7end+jcvC7gmz5w6hcFSn5v2Vj5KNxY8EY+XRimZr3agAE2KCKSWqSyqhpFTJs+lRQqdaJs2dI2rwqSV8wt540kLFovmQtXqAoXL5EytaslHHWrF4hU1BGztyyWWZtbQyd2Ods22ICn+divbh2l6zYu0dW790rK3fvlrrjx9VclB2+xcbCyqOH5fNFc5UTsRtHl1A42IoJZ7G0qlwnwoZQ3HggfwIhAF8aWyR5a1bJYRREzYX6Jt98961sP3pEYqoXSPfCbOW07Y10QrQiwILe+DuGLj176PZvCV06zaFLQ08Ifb6SY9VIp8cgbtgSU3vqpDZfbTl89owkQaQ/mZOuxE0wBJLL55XSGWottgbeWXRp2qLbr3kY/4eBDQMSo+UWpPH7smIpWrNC6k61PLM9jQZ9zEZWL5KX8kbIjSjI2b3F4faq+8/mWI2xOm8bYaMM9xVjmOoyaleQv134DMP40U+BjsFFK5epqRdacthmRWjfqVOSAeP0LAxjMIyqB4y3b2y4wgeGnYEBvVFD90L6xFMRJp4wuo2AISYe4QPNDBAPnI/HkP7iPmSAuONzPfwNxluBY1rjRgb1ETcYebf+EAMw+A180UBf0lPc+hDr7o7PnAOiQnWHcF+mSQEysBfOAcfnueAc3XDObjhnnkMQPr8KcTN61Qo1zLu51jFOH0L/skk1a2X4giqJnjVNomZOkxiIhdg5MyQO67jZ0yWuaqbEQQDFQTDELZwncRANcdULJQ4V1Lgli01ATMUtqwZLJA3lVA7ucf7K5VK8eqWUrl0t49atkUmoAHNKiKlg+oYamblpo8zevFFmgTlbNsnCHdtkyc4dsnTXDlkClkNMrNpTJ+sgKNaDmn17ZBPE2OaDB0wcOCDbcP67jh2V3ceOSS3gWn2G8Kg7cUJBkcdIzcdRMbTA75w/jt33HMZtzYWvyFcm8J1O7V/Bbn37vUlwE8YIss1bR5erImzIVjwQv506STpDOHBaABWd2FZQOIp1VxHTcbW4sU7/CkNx4wNjyWHGr5SVSCkeVs7e60hT87pDB2Tw/NnyYF6mapkIQDqcPLOtYqApuvR06PZ1BF1azaFLoxmGJ4gPjFAQjMTTBSNlJGq8jszdRaNw4vx5iV80T+7mrPYcyePqbilbI20Xa6PeWnTpWtBt7xgUIRQj3nGcNDNO/gBxM2ljjew/c7rFrj/W2DZD3CSg4H8OxiQINVV2/dntluLviph6QnBfQ3B/VfA/wjS0REpQnKNENBAboYZg6wmXQNSy2x2IjyCsfSMGitvnH8rrEDesLR9FWWFviLI1O1Aep8OIPpkYI4FD+4sXzpvXGRyDaxgWrlqE2EpCh+6u8dEgSm4CNyM/u0G8qTV+vwXcis/kduT7HeBH8SAhRu5Kim0Ax7kL+92D3+9NjAVcx8iPAVsh7gcP4v8HcXx2XXD9EHgYefpwbKQJnN8j4FFFlDwGuhOcF+mhiJYe+K15Ik3geD2S46RHaqL0SE+WHhnDpQfK/h4j0qRHdoaaiJQ8grx9MT9b0hbOh/E/6FD3tQUabGe2N2iMo8tVEzYMB74WSvCD6RXimRwtgRnJelHhCLoWFVeKm6vUYmOBDsBeajRZovy8tEgmbtmoukJ0+WoNa8SbobQHwCg8kpeFfI6VAKSjb7nRGHyH0aVnD93+jqBLyx66/ZuHMYQCkT8UN88V5koaw3xDtOjy1RoWUrWnTsiI5dUovCPFK3IgDDkMrK1AaQvKaFsEhj2sjLsWSzoNUHCwRYX+ME3ANVh/V/vYnJdpXxO2/+mguPGH+Lsdef3vyePUyBxOD9KSs+u5Ly/L6v17JQo13KfwHlJM+MIQNTonfk6CkIFxsrTMUMTQeZmztPsBdmUxerQn9jU16VszVDyG2TJEtcSZMHcFKNg1wG6CgSYgJhpaKaxAzZ6tFWwBscvgvk0Js9CngUG96x06G4Pf6cjZ61PxCP0EfCxun/1HfD/6hzyLc+W0AKwx6/LVGt6DPadOSv6yJfJGcYHchvx8Ii1Znk4fLs/AkL86Kk/eHVssfy8bLR+yG2P8WPlkYpmElk+UXhWTJHTKJLXuP3WKhE2fKkNmVEr03NmStGg+BMA8yVy0QLKqFzVi5NLFMmrVChm7fq2MWb9GxqxbLaVgAj5XQPhad12wy2Lu9q2ycNcOqa7brVgCGKl9Jbsv9u1V0ZU3HDoom2BXKIa3Hj0i21D+bTezwx7Ybscxgs/Hj5k4QY43AOFnYTu+78Kaz64jYQwMXIejy1UTNoRTls/ZvVP+NnWydElPEi8UeK0aJXWdCxsSCHHjlhonfhCAr04qkzGbalQzX0u1MfoyrMELP6BqlppNnD47vsxnF4iBxtimp0O3n6Po0rOHbv+WCYGB9IGw6QyB82JRnips6YOgy1dreA92Hj8qg2dOlceQjieMXQi7pazTT00wCQkraIxp7CmoSADwBfT58YaRVqjPw0C0eCdGi5cVnokw0hAKnvGRMNYR4onarDUeRBlsszE2G2aO5nKnsY4KE3cY6BbB9bgpBqlZpt3YKqAjfIAeNuMTfh7cR9wG9ZLbIgbIH0flSuHKZci7Y6plRpe3hK2TZy5fVn3wQ2ZNk8dQm/bj8WDw3SAO3IaS/iZ4DP6Ha+PEkcEUQBAzXSFwbsO9ZSvCj5Dn9+A5uS89RXE/auaP4R1/HDXzJ8BTI9PlmZxMeSFvhPwSFYKX80fKrwtz5Nc4X/Iqno03xxTKO6hkvDsWjBkl78Ho/7G0pJ4/QQD8Y0Kp/Bvv6n80/Bui4MNJ4+SzisnyxdTyRoRWTpG+M6ZK/5nTpJ+iUgZiHaZhEBgMomdNlxgQS2bPkHCIjDTk1VYOs28mb62hSN8LcTNt21YZsWq5jFmzSsavpdBYJxVbNqmJehfs2C7VO3eYuzN2ysq6WlkFcWGiTkVNr9m/T2pQ5mw6ckg5i3MUUR3ucR0EgTXsxqEvEFtHGe+MsIXpBL6fuXixodtCdV18pQI9cg43xp2ywFZVQ1j8cHB0uarChnwFxbsUivtXKCRoAAIhcJwO4KeEh40YcLmwsUn/KhAAUcMh3PRLenvKBJm+Y5scu3DeoW6p5XvrJHR6hZpXitM3BCGvG7fcWBnhVmGdVnPo9jXBbrLGsOvMBKdE4DnbEtiEBAlk64uzwNgFQUTQH4STZgZDOPy2OF/VIE9evNBi8zGdXVnzGzijQu5MiJQQEAAxEpASAyhamPYwCYRhVWscJwCoViIe20ww7g1bjyyEQBCFqLUJRvDuDG4AN+J6b8L7cjPWt2C7W7CvNbfit9uwD1tIbsc53IHn5s7hCfIj/HcXPrP77B5wrzX43cKP8f2+tHi5H8d6gCC9B7A/eRDfH8JxLTxs5pHUxjyK3x7FfX/MTHc8w92x72Ox4fIbiIgoGOI1MISOtCqcuXxJTbA5AM/xK7mZ0h3X0R3n1B3H6I586A7x3x1pds9Jl+4QJM9AhLw+ulB+C/FBsfFPiI3/jBstn5aPl9BpU6TPjErpA1HQHwIgsmqmxM6dLQnz5kjq/CoZsWi+5C1ZLAVLF0vx8qUydtUKKaMvw+oVMm7tKpmCisWMrZukastmsEnmbd0iC7ZvUz4MCyAAFkMArIWh34Br23CgKTX798qmg/tlNw08xIQ1B86cViOWTsK4n1BcUNdOI898subsZZPRN4y7wQ8BR5erLmwIh8bNRkHwuwljUfuMUJNmOtVy8wMRNoQtNxQ3ITinV1Dzm7Fzm5xGwafLV2vonLVy3175BDW5H2NfLxg6CgNHRYdd0gn2VTQXK8camzQARyhxOgiOlONIrnpgYBUw+h4QAY0+a4kRD4gHD4gKRWJUAwnNADFj6ZZwg9FlAL5g1PrfKimQsTXrVOA4Xb5aQ3Gz8dBBiV8wR27H8dwGhYpHeD9RXRnDBptgCwqPxWPiXDsjP+6CMb4bPARj/bNROfIyBNWvS/LlFfBrHJ+8is+vjymUt8tK5I94T/42caz8p2KifA4j3xu1+wFgED5bYHfAUIiG6PlzJH7xfElYvECSqhdK2tJFkrWsWg29HrVulYxmFwAYy24AGOxS1NJNrJTx+H3KxhqZDuM9A4Z7xlauN8scGO75qK0vRm19MYQGWQLhvBzPF5+xFTDaK9TnfWq+qBrkyYbDh2UjhN8W1OC3kaOHYdSPyZGzZ9Sz6Yg4Z+2cRpxO2xz5x24GldbxYw1AKCjw/06IhNpTp6T29CnZA/YBjrQ6cOaMHEQah86ercfUWnBOTcR3/Pw55Tt1CuKCUz3w/eJEiGxFUOBZoNBgF9n5y2b4GUKDrQuWNVsY2FXRHF+xBeLbbxvBlmwKaV6vie9U/rBl0BbL77r8MjC43nB06RDChi8mC4tJqAVR3HQaHituMEq+EDhOzS1lESBc8/tIM7bbNYHpa+BxLfA703UFNmKF0Ek4EMLAAmPQ+MLo+cDgcwJRGn2u6WvDFhu3uHDphs/Ji+bJFhgOGtWWam0siOfv3C6fobZ6N9L3iY9URpzTC7hBULKlQo/J2DdmqLjBSLtFDxa3qEHmrgoA4+0GUaD+s8V6f+u0E3B8CgGSEiNuEDQ+gCLoBuQLuQ15dC/uwY9xL36M9X1ZWIOHsjNU7dwCRzY9BoHQIydDnsjNkF9AKDxdnCvPFOXKCxAHv4RIeJGigeLBileK8uRVrDlr8tvjx8jb40rkd6jt966cIhM21Kjasy5PbfkSxop9+5nLqyVi7iwZtqBKhkFYDKteYGahDIO4GAZxMWzFEhm+eoWMhKjIXrdGCiCgxuIdmLx5o1SAKea1YstGmbp1k8zYvkXmQMzyPrJrZvk++hfskbUQEuttYHfA5iOHZKsSACbfAQZxrIPRp+PuIRh3S/P/UXw+BoNvzQn8fhrG/dwlk/E+ZzbiF2G0eZ2NjDEMscnI8n1uQJdHBgYGBq3B0aVDCBsLrA3NRG2QtdUbYbTZLaWAwGErTlBmigRlDZdAa9RvgGtuA4OtUNubseyvgWmb4HHsQaGRpOYZcpaGLhLszzQs8Lv5N3+kz1m5+d26W4VxbNSM3cwLfGYLS4hqIcH5Qvg9gM8xnEV5T52q9TpSc+OQurkwjJ+htv8TGP+7cOx7kI8/hsC7D3C6AFs46/iDZh7KTpOHwSPZ6fII/ns0M1UeRRqP4VweQ149ht8ew/+P4f9G4FgUHI/lEYiPfDLCtC4cKY9BfJBHx46Sn0wYLb+aMEZ+N3mcvF8xSfEfCIxeM9g6YWqh6AO4HoTrj4J4MDFHIhVVEj1vtiTOnyMZyxZLFgQEyYeIKFizQkZhrboWQGk9y1UXAwVE5bbNMn3rZpmPZ5ETDNIZ8fxXLXeVGBgYGBi0H44uHUrYsMbHJt4aGJKoRfPkcRjCANWSEG7qYmA3BIy7Bwy7AkJAdV0MjxUP1PQ9UsxdEY1gt4QOc1eFbXeFNZZuivhI8eA5xJKhCvcYC0Psw225H8F1uCNNd5wTJ2FUa4Jzd4coCIQ4uwnC4nZwZxbA+sc56fIQjP/jRWx1yJMXi/Pl1ZIC1arw1rgS+Wh6BWrxm5UDniNN+RYYQ6AWtfY5qPWX1qxX3RGTN22QSqQ1fduWBtj9gHUVtltQt1sW7qmVanY57N8naw8dlPW4TzVHTF0Mm44dlc3Hj8rW48dk6wlyvGVOWjjRwKmTsu30KdkFGKmaAR3JPsDuA1sOnzur5iJTnDOv1eezpm6FC+flxIULCvrKMJLlKdW10BTVzXD5spz9EqjuBfovfKm6DJzJXwMDAwMD1+Po0qGEjQU2YW8+dkSKYHAjF86V/0yrkDcnjJWnS/KlR2E2avjZ0n1UjvwEhv6p0YXq92fB82MK5SXU+F8fN1renliqeGdSmbxbPh61/onyJ9T8yV/A3yomyz+mTpZ/T5siH8+okM9mVtbz+axKCZ09XXpVzZQ+c2eZ4GfQFwyYN1vC5s+RoTi3SAgwirCoxfNNa+vvpHpBA0sXSdSyxRK1vBprM/y8apkkrFkhaWtXSubaVZKFdRbWObh+dk+UbKyRcRAekwC7JyhApu3YKgshMvbC4F9yYP4dHfQDoD8B/RzoS8BImefoO0D4GZwHl2Dc2dVFfwD2/3//nWHkDQwMDAyuLI4uHVLYWHMJBpWtABVbN0nmiiUSAzERMX+2RC2skvglC9Wkj5kge+UyyVu9QoohCBj8iy0OM7dvkdk7tsm8XTulek+dGn1F6Jewav9eWX9gv3L25CSTHHq454SJfSdPysEzp1HjP1tf2z9hrvmzxs/aPGvxLcXfMDAwMDAwMHANji4dXtgQTjbGLgJ2K7C7QXU/YH30/Hk5BrFx3Cw+LF0NHGVF8cEuBTVyQXUpmMM3A/qjXPz6K7kEcaJGJiB9a0dI5QwJ1MgEa6xGJ+jO08DAwMDAwKB9cHS5JoSNgYGBgYGBwQ8bRxdD2BgYGBgYGBh0eBxd3MxrYzEWYzEWYzEWYzGWa34xhI2xGIuxGIuxGIuxXDeLIWyMxViMxViMxViM5bpZDB8bGzg3y7mvvpT9DAB37oyaZNJRDmAf7sfPjs6oa+A83377rRw/flzWrVsnM2bMkPHjx0tpaamirKxMJkyYIJWVlbJmzRo5ceKEfGPciyuC9aL738DAwKAtOLaI/P8PX55XGqPzdQAAAABJRU5ErkJggg==;" vertex="1" parent="1">
          <mxGeometry x="700" y="127" width="186.37" height="54" as="geometry" />
        </mxCell>
        <mxCell id="focrXoz_WdyaWyZUIMh4-9" value="Loading csv dumps&amp;nbsp;" style="text;html=1;align=center;verticalAlign=middle;whiteSpace=wrap;rounded=0;" vertex="1" parent="1">
          <mxGeometry x="540" y="151" width="110" height="30" as="geometry" />
        </mxCell>
        <mxCell id="focrXoz_WdyaWyZUIMh4-13" value="NFS Share&lt;div&gt;(/sqreamshare)&lt;/div&gt;" style="rounded=0;whiteSpace=wrap;html=1;" vertex="1" parent="1">
          <mxGeometry x="410" y="310" width="120" height="60" as="geometry" />
        </mxCell>
        <mxCell id="focrXoz_WdyaWyZUIMh4-15" value="copy files" style="text;html=1;align=center;verticalAlign=middle;whiteSpace=wrap;rounded=0;" vertex="1" parent="1">
          <mxGeometry x="410" y="210" width="60" height="30" as="geometry" />
        </mxCell>
      </root>
    </mxGraphModel>
  </diagram>
</mxfile>
